<?xml version="1.0" encoding="UTF-8" standalone="no"?><svg xmlns="http://www.w3.org/2000/svg" xmlns:xlink="http://www.w3.org/1999/xlink" contentScriptType="application/ecmascript" contentStyleType="text/css" height="241px" preserveAspectRatio="none" style="width:494px;height:241px;" version="1.1" viewBox="0 0 494 241" width="494px" zoomAndPan="magnify"><defs><filter height="300%" id="f8g78thy2qqp1" width="300%" x="-1" y="-1"><feGaussianBlur result="blurOut" stdDeviation="2.0"/><feColorMatrix in="blurOut" result="blurOut2" type="matrix" values="0 0 0 0 0 0 0 0 0 0 0 0 0 0 0 0 0 0 .4 0"/><feOffset dx="4.0" dy="4.0" in="blurOut2" result="blurOut3"/><feBlend in="SourceGraphic" in2="blurOut3" mode="normal"/></filter></defs><g><!--MD5=[59b530d44ae785dc18db921986a9c15c]
class Document--><rect codeLine="1" fill="#FEFECE" filter="url(#f8g78thy2qqp1)" height="60.8047" id="Document" style="stroke:#A80036;stroke-width:1.5;" width="96" x="189" y="7"/><ellipse cx="204" cy="23" fill="#ADD1B2" rx="11" ry="11" style="stroke:#A80036;stroke-width:1.0;"/><path d="M208.1094,29 L200.3906,29 L200.3906,16.6094 L208.1094,16.6094 L208.1094,18.7656 L202.8438,18.7656 L202.8438,21.4375 L207.6094,21.4375 L207.6094,23.5938 L202.8438,23.5938 L202.8438,26.8438 L208.1094,26.8438 L208.1094,29 Z " fill="#000000"/><text fill="#000000" font-family="sans-serif" font-size="12" lengthAdjust="spacing" textLength="64" x="218" y="27.1543">Document</text><line style="stroke:#A80036;stroke-width:1.5;" x1="190" x2="284" y1="39" y2="39"/><ellipse cx="200" cy="50" rx="3" ry="3" style="stroke:#038048;stroke-width:1.0;fill:none;"/><text fill="#000000" font-family="sans-serif" font-size="11" lengthAdjust="spacing" textLength="10" x="209" y="53.2104">id</text><line style="stroke:#A80036;stroke-width:1.5;" x1="190" x2="284" y1="59.8047" y2="59.8047"/><!--MD5=[a103b140d2919c4237c0d204bbab17ba]
class PostDocument--><rect codeLine="5" fill="#FEFECE" filter="url(#f8g78thy2qqp1)" height="99.2188" id="PostDocument" style="stroke:#A80036;stroke-width:1.5;" width="124" x="7" y="128"/><ellipse cx="22" cy="144" fill="#ADD1B2" rx="11" ry="11" style="stroke:#A80036;stroke-width:1.0;"/><path d="M26.1094,150 L18.3906,150 L18.3906,137.6094 L26.1094,137.6094 L26.1094,139.7656 L20.8438,139.7656 L20.8438,142.4375 L25.6094,142.4375 L25.6094,144.5938 L20.8438,144.5938 L20.8438,147.8438 L26.1094,147.8438 L26.1094,150 Z " fill="#000000"/><text fill="#000000" font-family="sans-serif" font-size="12" lengthAdjust="spacing" textLength="92" x="36" y="148.1543">PostDocument</text><line style="stroke:#A80036;stroke-width:1.5;" x1="8" x2="130" y1="160" y2="160"/><ellipse cx="18" cy="171" rx="3" ry="3" style="stroke:#038048;stroke-width:1.0;fill:none;"/><text fill="#000000" font-family="sans-serif" font-size="11" lengthAdjust="spacing" textLength="10" x="27" y="174.2104">id</text><line style="stroke:#A80036;stroke-width:1.0;" x1="8" x2="130" y1="180.8047" y2="180.8047"/><text fill="#000000" font-family="sans-serif" font-size="11" lengthAdjust="spacing" textLength="88" x="13" y="195.0151">documentId [fk]</text><text fill="#000000" font-family="sans-serif" font-size="11" lengthAdjust="spacing" textLength="83" x="13" y="207.8198">content: string</text><text fill="#000000" font-family="sans-serif" font-size="11" lengthAdjust="spacing" textLength="83" x="13" y="220.6245">postedAt: date</text><!--MD5=[d25f922947f85034aef7f265d6f2eb56]
class UpdateDocument--><rect codeLine="14" fill="#FEFECE" filter="url(#f8g78thy2qqp1)" height="99.2188" id="UpdateDocument" style="stroke:#A80036;stroke-width:1.5;" width="142" x="166" y="128"/><ellipse cx="181" cy="144" fill="#ADD1B2" rx="11" ry="11" style="stroke:#A80036;stroke-width:1.0;"/><path d="M185.1094,150 L177.3906,150 L177.3906,137.6094 L185.1094,137.6094 L185.1094,139.7656 L179.8438,139.7656 L179.8438,142.4375 L184.6094,142.4375 L184.6094,144.5938 L179.8438,144.5938 L179.8438,147.8438 L185.1094,147.8438 L185.1094,150 Z " fill="#000000"/><text fill="#000000" font-family="sans-serif" font-size="12" lengthAdjust="spacing" textLength="110" x="195" y="148.1543">UpdateDocument</text><line style="stroke:#A80036;stroke-width:1.5;" x1="167" x2="307" y1="160" y2="160"/><ellipse cx="177" cy="171" rx="3" ry="3" style="stroke:#038048;stroke-width:1.0;fill:none;"/><text fill="#000000" font-family="sans-serif" font-size="11" lengthAdjust="spacing" textLength="10" x="186" y="174.2104">id</text><line style="stroke:#A80036;stroke-width:1.0;" x1="167" x2="307" y1="180.8047" y2="180.8047"/><text fill="#000000" font-family="sans-serif" font-size="11" lengthAdjust="spacing" textLength="88" x="172" y="195.0151">documentId [fk]</text><text fill="#000000" font-family="sans-serif" font-size="11" lengthAdjust="spacing" textLength="83" x="172" y="207.8198">content: string</text><text fill="#000000" font-family="sans-serif" font-size="11" lengthAdjust="spacing" textLength="90" x="172" y="220.6245">updatedAt: date</text><!--MD5=[47d80e95d4952021e2db98dc4de7d31c]
class DeleteDocument--><rect codeLine="23" fill="#FEFECE" filter="url(#f8g78thy2qqp1)" height="86.4141" id="DeleteDocument" style="stroke:#A80036;stroke-width:1.5;" width="137" x="343.5" y="134.5"/><ellipse cx="358.5" cy="150.5" fill="#ADD1B2" rx="11" ry="11" style="stroke:#A80036;stroke-width:1.0;"/><path d="M362.6094,156.5 L354.8906,156.5 L354.8906,144.1094 L362.6094,144.1094 L362.6094,146.2656 L357.3438,146.2656 L357.3438,148.9375 L362.1094,148.9375 L362.1094,151.0938 L357.3438,151.0938 L357.3438,154.3438 L362.6094,154.3438 L362.6094,156.5 Z " fill="#000000"/><text fill="#000000" font-family="sans-serif" font-size="12" lengthAdjust="spacing" textLength="105" x="372.5" y="154.6543">DeleteDocument</text><line style="stroke:#A80036;stroke-width:1.5;" x1="344.5" x2="479.5" y1="166.5" y2="166.5"/><ellipse cx="354.5" cy="177.5" rx="3" ry="3" style="stroke:#038048;stroke-width:1.0;fill:none;"/><text fill="#000000" font-family="sans-serif" font-size="11" lengthAdjust="spacing" textLength="10" x="363.5" y="180.7104">id</text><line style="stroke:#A80036;stroke-width:1.0;" x1="344.5" x2="479.5" y1="187.3047" y2="187.3047"/><text fill="#000000" font-family="sans-serif" font-size="11" lengthAdjust="spacing" textLength="88" x="349.5" y="201.5151">documentId [fk]</text><text fill="#000000" font-family="sans-serif" font-size="11" lengthAdjust="spacing" textLength="86" x="349.5" y="214.3198">deletedAt: date</text><!--MD5=[831b27d2d0139678683f5a9dc9823ffd]
link Document to PostDocument--><path codeLine="12" d="M193.8336,73.472 C175.9144,88.4047 154.7191,106.0674 134.9286,122.5595 " fill="none" id="Document-PostDocument" style="stroke:#A80036;stroke-width:1.0;"/><line style="stroke:#A80036;stroke-width:1.0;" x1="134.7042" x2="132.3995" y1="122.7466" y2="132.4774"/><line style="stroke:#A80036;stroke-width:1.0;" x1="134.7042" x2="124.7173" y1="122.7466" y2="123.2586"/><line style="stroke:#A80036;stroke-width:1.0;" x1="134.7042" x2="128.5584" y1="122.7466" y2="127.868"/><ellipse cx="139.3136" cy="118.9055" rx="4" ry="4" style="stroke:#A80036;stroke-width:1.0;fill:none;"/><line style="stroke:#A80036;stroke-width:1.0;fill:none;" x1="194.4981" x2="199.6196" y1="67.7115" y2="73.8572"/><line style="stroke:#A80036;stroke-width:1.0;fill:none;" x1="192.1934" x2="197.3149" y1="69.632" y2="75.7778"/><line style="stroke:#A80036;stroke-width:1.0;fill:none;" x1="193.9859" x2="200.1317" y1="73.3451" y2="68.2236"/><!--MD5=[7a4e335225a5efd4e80f208d17599957]
link Document to UpdateDocument--><path codeLine="21" d="M237,76.2969 C237,89.7612 237,105.162 237,119.8189 " fill="none" id="Document-UpdateDocument" style="stroke:#A80036;stroke-width:1.0;"/><line style="stroke:#A80036;stroke-width:1.0;" x1="237" x2="243" y1="119.868" y2="127.868"/><line style="stroke:#A80036;stroke-width:1.0;" x1="237" x2="231" y1="119.868" y2="127.868"/><line style="stroke:#A80036;stroke-width:1.0;" x1="237" x2="237" y1="119.868" y2="127.868"/><ellipse cx="237" cy="113.868" rx="4" ry="4" style="stroke:#A80036;stroke-width:1.0;fill:none;"/><line style="stroke:#A80036;stroke-width:1.0;fill:none;" x1="233" x2="241" y1="72.2236" y2="72.2236"/><line style="stroke:#A80036;stroke-width:1.0;fill:none;" x1="233" x2="241" y1="75.2236" y2="75.2236"/><line style="stroke:#A80036;stroke-width:1.0;fill:none;" x1="237" x2="237" y1="76.2236" y2="68.2236"/><!--MD5=[cb8230e279cdbda26322bbc03b0b6261]
link Document to DeleteDocument--><path codeLine="29" d="M281.8128,73.3503 C303.0638,90.351 328.7642,110.9114 351.697,129.2576 " fill="none" id="Document-DeleteDocument" style="stroke:#A80036;stroke-width:1.0;"/><line style="stroke:#A80036;stroke-width:1.0;" x1="351.8391" x2="361.8342" y1="129.371" y2="129.6836"/><line style="stroke:#A80036;stroke-width:1.0;" x1="351.8391" x2="354.3376" y1="129.371" y2="139.0538"/><line style="stroke:#A80036;stroke-width:1.0;" x1="351.8391" x2="358.0859" y1="129.371" y2="134.3687"/><ellipse cx="347.1539" cy="125.6227" rx="4" ry="4" style="stroke:#A80036;stroke-width:1.0;fill:none;"/><line style="stroke:#A80036;stroke-width:1.0;fill:none;" x1="276.0291" x2="281.0268" y1="73.8459" y2="67.599"/><line style="stroke:#A80036;stroke-width:1.0;fill:none;" x1="278.3717" x2="283.3694" y1="75.72" y2="69.4731"/><line style="stroke:#A80036;stroke-width:1.0;fill:none;" x1="281.6514" x2="275.4045" y1="73.2212" y2="68.2236"/><!--MD5=[5418d938ec193c81e232f9d5e2de1da1]
@startuml
entity Document {
  + id
}

entity PostDocument {
  + id
  - - -
  documentId [fk]
  content: string
  postedAt: date
}
Document ||- -o{ PostDocument

entity UpdateDocument {
  + id
  - - -
  documentId [fk]
  content: string
  updatedAt: date
}
Document ||- -o{ UpdateDocument

entity DeleteDocument {
  + id
  - - -
  documentId [fk]
  deletedAt: date
}
Document ||- -o{ DeleteDocument
@enduml

PlantUML version 1.2021.5(Sun Apr 25 11:20:28 UTC 2021)
(GPL source distribution)
Java Runtime: OpenJDK Runtime Environment
JVM: OpenJDK 64-Bit Server VM
Default Encoding: UTF-8
Language: en
Country: null
--></g></svg>