<?xml version="1.0" encoding="UTF-8" standalone="no"?><svg xmlns="http://www.w3.org/2000/svg" xmlns:xlink="http://www.w3.org/1999/xlink" contentScriptType="application/ecmascript" contentStyleType="text/css" height="228px" preserveAspectRatio="none" style="width:494px;height:228px;" version="1.1" viewBox="0 0 494 228" width="494px" zoomAndPan="magnify"><defs><filter height="300%" id="f1f65lunjr6v0t" width="300%" x="-1" y="-1"><feGaussianBlur result="blurOut" stdDeviation="2.0"/><feColorMatrix in="blurOut" result="blurOut2" type="matrix" values="0 0 0 0 0 0 0 0 0 0 0 0 0 0 0 0 0 0 .4 0"/><feOffset dx="4.0" dy="4.0" in="blurOut2" result="blurOut3"/><feBlend in="SourceGraphic" in2="blurOut3" mode="normal"/></filter></defs><g><!--MD5=[59b530d44ae785dc18db921986a9c15c]
class Document--><rect codeLine="1" fill="#FEFECE" filter="url(#f1f65lunjr6v0t)" height="60.8047" id="Document" style="stroke:#A80036;stroke-width:1.5;" width="96" x="189" y="7"/><ellipse cx="204" cy="23" fill="#ADD1B2" rx="11" ry="11" style="stroke:#A80036;stroke-width:1.0;"/><path d="M208.1094,29 L200.3906,29 L200.3906,16.6094 L208.1094,16.6094 L208.1094,18.7656 L202.8438,18.7656 L202.8438,21.4375 L207.6094,21.4375 L207.6094,23.5938 L202.8438,23.5938 L202.8438,26.8438 L208.1094,26.8438 L208.1094,29 Z " fill="#000000"/><text fill="#000000" font-family="sans-serif" font-size="12" lengthAdjust="spacing" textLength="64" x="218" y="27.1543">Document</text><line style="stroke:#A80036;stroke-width:1.5;" x1="190" x2="284" y1="39" y2="39"/><ellipse cx="200" cy="50" rx="3" ry="3" style="stroke:#038048;stroke-width:1.0;fill:none;"/><text fill="#000000" font-family="sans-serif" font-size="11" lengthAdjust="spacing" textLength="10" x="209" y="53.2104">id</text><line style="stroke:#A80036;stroke-width:1.5;" x1="190" x2="284" y1="59.8047" y2="59.8047"/><!--MD5=[a103b140d2919c4237c0d204bbab17ba]
class PostDocument--><rect codeLine="5" fill="#FEFECE" filter="url(#f1f65lunjr6v0t)" height="86.4141" id="PostDocument" style="stroke:#A80036;stroke-width:1.5;" width="124" x="7" y="128"/><ellipse cx="22" cy="144" fill="#ADD1B2" rx="11" ry="11" style="stroke:#A80036;stroke-width:1.0;"/><path d="M26.1094,150 L18.3906,150 L18.3906,137.6094 L26.1094,137.6094 L26.1094,139.7656 L20.8438,139.7656 L20.8438,142.4375 L25.6094,142.4375 L25.6094,144.5938 L20.8438,144.5938 L20.8438,147.8438 L26.1094,147.8438 L26.1094,150 Z " fill="#000000"/><text fill="#000000" font-family="sans-serif" font-size="12" lengthAdjust="spacing" textLength="92" x="36" y="148.1543">PostDocument</text><line style="stroke:#A80036;stroke-width:1.5;" x1="8" x2="130" y1="160" y2="160"/><ellipse cx="18" cy="171" rx="3" ry="3" style="stroke:#038048;stroke-width:1.0;fill:none;"/><text fill="#000000" font-family="sans-serif" font-size="11" lengthAdjust="spacing" textLength="10" x="27" y="174.2104">id</text><line style="stroke:#A80036;stroke-width:1.0;" x1="8" x2="130" y1="180.8047" y2="180.8047"/><text fill="#000000" font-family="sans-serif" font-size="11" lengthAdjust="spacing" textLength="83" x="13" y="195.0151">content: string</text><text fill="#000000" font-family="sans-serif" font-size="11" lengthAdjust="spacing" textLength="83" x="13" y="207.8198">postedAt: date</text><!--MD5=[d25f922947f85034aef7f265d6f2eb56]
class UpdateDocument--><rect codeLine="13" fill="#FEFECE" filter="url(#f1f65lunjr6v0t)" height="86.4141" id="UpdateDocument" style="stroke:#A80036;stroke-width:1.5;" width="142" x="166" y="128"/><ellipse cx="181" cy="144" fill="#ADD1B2" rx="11" ry="11" style="stroke:#A80036;stroke-width:1.0;"/><path d="M185.1094,150 L177.3906,150 L177.3906,137.6094 L185.1094,137.6094 L185.1094,139.7656 L179.8438,139.7656 L179.8438,142.4375 L184.6094,142.4375 L184.6094,144.5938 L179.8438,144.5938 L179.8438,147.8438 L185.1094,147.8438 L185.1094,150 Z " fill="#000000"/><text fill="#000000" font-family="sans-serif" font-size="12" lengthAdjust="spacing" textLength="110" x="195" y="148.1543">UpdateDocument</text><line style="stroke:#A80036;stroke-width:1.5;" x1="167" x2="307" y1="160" y2="160"/><ellipse cx="177" cy="171" rx="3" ry="3" style="stroke:#038048;stroke-width:1.0;fill:none;"/><text fill="#000000" font-family="sans-serif" font-size="11" lengthAdjust="spacing" textLength="10" x="186" y="174.2104">id</text><line style="stroke:#A80036;stroke-width:1.0;" x1="167" x2="307" y1="180.8047" y2="180.8047"/><text fill="#000000" font-family="sans-serif" font-size="11" lengthAdjust="spacing" textLength="83" x="172" y="195.0151">content: string</text><text fill="#000000" font-family="sans-serif" font-size="11" lengthAdjust="spacing" textLength="90" x="172" y="207.8198">updatedAt: date</text><!--MD5=[47d80e95d4952021e2db98dc4de7d31c]
class DeleteDocument--><rect codeLine="21" fill="#FEFECE" filter="url(#f1f65lunjr6v0t)" height="73.6094" id="DeleteDocument" style="stroke:#A80036;stroke-width:1.5;" width="137" x="343.5" y="134"/><ellipse cx="358.5" cy="150" fill="#ADD1B2" rx="11" ry="11" style="stroke:#A80036;stroke-width:1.0;"/><path d="M362.6094,156 L354.8906,156 L354.8906,143.6094 L362.6094,143.6094 L362.6094,145.7656 L357.3438,145.7656 L357.3438,148.4375 L362.1094,148.4375 L362.1094,150.5938 L357.3438,150.5938 L357.3438,153.8438 L362.6094,153.8438 L362.6094,156 Z " fill="#000000"/><text fill="#000000" font-family="sans-serif" font-size="12" lengthAdjust="spacing" textLength="105" x="372.5" y="154.1543">DeleteDocument</text><line style="stroke:#A80036;stroke-width:1.5;" x1="344.5" x2="479.5" y1="166" y2="166"/><ellipse cx="354.5" cy="177" rx="3" ry="3" style="stroke:#038048;stroke-width:1.0;fill:none;"/><text fill="#000000" font-family="sans-serif" font-size="11" lengthAdjust="spacing" textLength="10" x="363.5" y="180.2104">id</text><line style="stroke:#A80036;stroke-width:1.0;" x1="344.5" x2="479.5" y1="186.8047" y2="186.8047"/><text fill="#000000" font-family="sans-serif" font-size="11" lengthAdjust="spacing" textLength="86" x="349.5" y="201.0151">deletedAt: date</text><!--MD5=[831b27d2d0139678683f5a9dc9823ffd]
link Document to PostDocument--><path codeLine="11" d="M192.0381,73.2286 C172.8708,88.4598 150.216,106.4623 129.6036,122.8418 " fill="none" id="Document-PostDocument" style="stroke:#A80036;stroke-width:1.0;"/><line style="stroke:#A80036;stroke-width:1.0;" x1="129.5417" x2="127.0112" y1="122.891" y2="132.5655"/><line style="stroke:#A80036;stroke-width:1.0;" x1="129.5417" x2="119.5456" y1="122.891" y2="123.1707"/><line style="stroke:#A80036;stroke-width:1.0;" x1="129.5417" x2="123.2784" y1="122.891" y2="127.8681"/><ellipse cx="134.2391" cy="119.1581" rx="4" ry="4" style="stroke:#A80036;stroke-width:1.0;fill:none;"/><line style="stroke:#A80036;stroke-width:1.0;fill:none;" x1="192.8372" x2="197.8143" y1="67.4845" y2="73.7478"/><line style="stroke:#A80036;stroke-width:1.0;fill:none;" x1="190.4885" x2="195.4656" y1="69.351" y2="75.6142"/><line style="stroke:#A80036;stroke-width:1.0;fill:none;" x1="192.1941" x2="198.4574" y1="73.1047" y2="68.1276"/><!--MD5=[7a4e335225a5efd4e80f208d17599957]
link Document to UpdateDocument--><path codeLine="19" d="M237,76.3068 C237,89.8115 237,105.1782 237,119.5458 " fill="none" id="Document-UpdateDocument" style="stroke:#A80036;stroke-width:1.0;"/><line style="stroke:#A80036;stroke-width:1.0;" x1="237" x2="243" y1="119.8681" y2="127.8681"/><line style="stroke:#A80036;stroke-width:1.0;" x1="237" x2="231" y1="119.8681" y2="127.8681"/><line style="stroke:#A80036;stroke-width:1.0;" x1="237" x2="237" y1="119.8681" y2="127.8681"/><ellipse cx="237" cy="113.8681" rx="4" ry="4" style="stroke:#A80036;stroke-width:1.0;fill:none;"/><line style="stroke:#A80036;stroke-width:1.0;fill:none;" x1="233" x2="241" y1="72.1276" y2="72.1276"/><line style="stroke:#A80036;stroke-width:1.0;fill:none;" x1="233" x2="241" y1="75.1276" y2="75.1276"/><line style="stroke:#A80036;stroke-width:1.0;fill:none;" x1="237" x2="237" y1="76.1276" y2="68.1276"/><!--MD5=[cb8230e279cdbda26322bbc03b0b6261]
link Document to DeleteDocument--><path codeLine="26" d="M283.6051,73.053 C306.1005,90.2138 333.2486,110.9239 356.776,128.872 " fill="none" id="Document-DeleteDocument" style="stroke:#A80036;stroke-width:1.0;"/><line style="stroke:#A80036;stroke-width:1.0;" x1="356.9487" x2="366.9483" y1="129.0035" y2="129.0855"/><line style="stroke:#A80036;stroke-width:1.0;" x1="356.9487" x2="359.6699" y1="129.0035" y2="138.6261"/><line style="stroke:#A80036;stroke-width:1.0;" x1="356.9487" x2="363.3091" y1="129.0035" y2="133.8558"/><ellipse cx="352.1783" cy="125.3643" rx="4" ry="4" style="stroke:#A80036;stroke-width:1.0;fill:none;"/><line style="stroke:#A80036;stroke-width:1.0;fill:none;" x1="277.9026" x2="282.7549" y1="73.734" y2="67.3735"/><line style="stroke:#A80036;stroke-width:1.0;fill:none;" x1="280.2878" x2="285.14" y1="75.5535" y2="69.1931"/><line style="stroke:#A80036;stroke-width:1.0;fill:none;" x1="283.509" x2="277.1485" y1="72.9798" y2="68.1276"/><!--MD5=[51306d803d8e16517a6b69487aefd7b6]
@startuml
entity Document {
  + id
}

entity PostDocument {
  + id
  - - -
  content: string
  postedAt: date
}
Document ||- -o{ PostDocument

entity UpdateDocument {
  + id
  - - -
  content: string
  updatedAt: date
}
Document ||- -o{ UpdateDocument

entity DeleteDocument {
  + id
  - - -
  deletedAt: date
}
Document ||- -o{ DeleteDocument
@enduml

PlantUML version 1.2021.5(Sun Apr 25 11:20:28 UTC 2021)
(GPL source distribution)
Java Runtime: OpenJDK Runtime Environment
JVM: OpenJDK 64-Bit Server VM
Default Encoding: UTF-8
Language: en
Country: null
--></g></svg>