<?xml version="1.0" encoding="UTF-8" standalone="no"?><svg xmlns="http://www.w3.org/2000/svg" xmlns:xlink="http://www.w3.org/1999/xlink" contentScriptType="application/ecmascript" contentStyleType="text/css" height="747px" preserveAspectRatio="none" style="width:1248px;height:747px;" version="1.1" viewBox="0 0 1248 747" width="1248px" zoomAndPan="magnify"><defs><filter height="300%" id="f105srwm0ovbdn" width="300%" x="-1" y="-1"><feGaussianBlur result="blurOut" stdDeviation="2.0"/><feColorMatrix in="blurOut" result="blurOut2" type="matrix" values="0 0 0 0 0 0 0 0 0 0 0 0 0 0 0 0 0 0 .4 0"/><feOffset dx="4.0" dy="4.0" in="blurOut2" result="blurOut3"/><feBlend in="SourceGraphic" in2="blurOut3" mode="normal"/></filter></defs><g><!--MD5=[e511512a68bbbc8475bda5b365b2dd94]
class OrderType--><rect codeLine="1" fill="#FEFECE" filter="url(#f105srwm0ovbdn)" height="73.6094" id="OrderType" style="stroke:#A80036;stroke-width:1.5;" width="96" x="128.5" y="19.5"/><ellipse cx="143.5" cy="35.5" fill="#ADD1B2" rx="11" ry="11" style="stroke:#A80036;stroke-width:1.0;"/><path d="M147.6094,41.5 L139.8906,41.5 L139.8906,29.1094 L147.6094,29.1094 L147.6094,31.2656 L142.3438,31.2656 L142.3438,33.9375 L147.1094,33.9375 L147.1094,36.0938 L142.3438,36.0938 L142.3438,39.3438 L147.6094,39.3438 L147.6094,41.5 Z " fill="#000000"/><text fill="#000000" font-family="sans-serif" font-size="12" lengthAdjust="spacing" textLength="64" x="157.5" y="39.6543">OrderType</text><line style="stroke:#A80036;stroke-width:1.5;" x1="129.5" x2="223.5" y1="51.5" y2="51.5"/><ellipse cx="139.5" cy="62.5" rx="3" ry="3" style="stroke:#038048;stroke-width:1.0;fill:none;"/><text fill="#000000" font-family="sans-serif" font-size="11" lengthAdjust="spacing" textLength="51" x="148.5" y="65.7104">id: string</text><line style="stroke:#A80036;stroke-width:1.0;" x1="129.5" x2="223.5" y1="72.3047" y2="72.3047"/><text fill="#000000" font-family="sans-serif" font-size="11" lengthAdjust="spacing" textLength="65" x="134.5" y="86.5151">type: string</text><path d="M6,21 L6,91.5313 A0,0 0 0 0 6,91.5313 L93,91.5313 A0,0 0 0 0 93,91.5313 L93,60.5 L128.3169,56.5 L93,52.5 L93,31 L83,21 L6,21 A0,0 0 0 0 6,21 " fill="#FBFB77" filter="url(#f105srwm0ovbdn)" style="stroke:#A80036;stroke-width:1.0;"/><path d="M83,21 L83,31 L93,31 L83,21 " fill="#FBFB77" style="stroke:#A80036;stroke-width:1.0;"/><text fill="#000000" font-family="sans-serif" font-size="13" lengthAdjust="spacing" textLength="45" x="12" y="38.0669">type は</text><text fill="#000000" font-family="sans-serif" font-size="13" lengthAdjust="spacing" textLength="66" x="12" y="53.1997">"持ち帰り",</text><text fill="#000000" font-family="sans-serif" font-size="13" lengthAdjust="spacing" textLength="40" x="12" y="68.3325">"店内",</text><text fill="#000000" font-family="sans-serif" font-size="13" lengthAdjust="spacing" textLength="66" x="12" y="83.4653">"配達" など</text><!--MD5=[86a83d8b82f7f19e59b94b9ead716b00]
class RegisterMenuInOrderType--><rect codeLine="13" fill="#FEFECE" filter="url(#f105srwm0ovbdn)" height="86.4141" id="RegisterMenuInOrderType" style="stroke:#A80036;stroke-width:1.5;" width="193" x="80" y="181"/><ellipse cx="95" cy="197" fill="#ADD1B2" rx="11" ry="11" style="stroke:#A80036;stroke-width:1.0;"/><path d="M99.1094,203 L91.3906,203 L91.3906,190.6094 L99.1094,190.6094 L99.1094,192.7656 L93.8438,192.7656 L93.8438,195.4375 L98.6094,195.4375 L98.6094,197.5938 L93.8438,197.5938 L93.8438,200.8438 L99.1094,200.8438 L99.1094,203 Z " fill="#000000"/><text fill="#000000" font-family="sans-serif" font-size="12" lengthAdjust="spacing" textLength="161" x="109" y="201.1543">RegisterMenuInOrderType</text><line style="stroke:#A80036;stroke-width:1.5;" x1="81" x2="272" y1="213" y2="213"/><ellipse cx="91" cy="224" rx="3" ry="3" style="stroke:#038048;stroke-width:1.0;fill:none;"/><text fill="#000000" font-family="sans-serif" font-size="11" lengthAdjust="spacing" textLength="51" x="100" y="227.2104">id: string</text><line style="stroke:#A80036;stroke-width:1.0;" x1="81" x2="272" y1="233.8047" y2="233.8047"/><text fill="#000000" font-family="sans-serif" font-size="11" lengthAdjust="spacing" textLength="131" x="86" y="248.0151">orderTypeId: string [fk]</text><text fill="#000000" font-family="sans-serif" font-size="11" lengthAdjust="spacing" textLength="101" x="86" y="260.8198">menuId: string[fk]</text><!--MD5=[1534df4d8e42cf05efe077cbaf0a3a72]
class MenuCategory--><rect codeLine="20" fill="#FEFECE" filter="url(#f105srwm0ovbdn)" height="73.6094" id="MenuCategory" style="stroke:#A80036;stroke-width:1.5;" width="122" x="333.5" y="19.5"/><ellipse cx="348.5" cy="35.5" fill="#ADD1B2" rx="11" ry="11" style="stroke:#A80036;stroke-width:1.0;"/><path d="M352.6094,41.5 L344.8906,41.5 L344.8906,29.1094 L352.6094,29.1094 L352.6094,31.2656 L347.3438,31.2656 L347.3438,33.9375 L352.1094,33.9375 L352.1094,36.0938 L347.3438,36.0938 L347.3438,39.3438 L352.6094,39.3438 L352.6094,41.5 Z " fill="#000000"/><text fill="#000000" font-family="sans-serif" font-size="12" lengthAdjust="spacing" textLength="90" x="362.5" y="39.6543">MenuCategory</text><line style="stroke:#A80036;stroke-width:1.5;" x1="334.5" x2="454.5" y1="51.5" y2="51.5"/><ellipse cx="344.5" cy="62.5" rx="3" ry="3" style="stroke:#038048;stroke-width:1.0;fill:none;"/><text fill="#000000" font-family="sans-serif" font-size="11" lengthAdjust="spacing" textLength="51" x="353.5" y="65.7104">id: string</text><line style="stroke:#A80036;stroke-width:1.0;" x1="334.5" x2="454.5" y1="72.3047" y2="72.3047"/><text fill="#000000" font-family="sans-serif" font-size="11" lengthAdjust="spacing" textLength="73" x="339.5" y="86.5151">name: string</text><path d="M490.5,36.5 L490.5,52.5 L455.6777,56.5 L490.5,60.5 L490.5,76.7656 A0,0 0 0 0 490.5,76.7656 L616.5,76.7656 A0,0 0 0 0 616.5,76.7656 L616.5,46.5 L606.5,36.5 L490.5,36.5 A0,0 0 0 0 490.5,36.5 " fill="#FBFB77" filter="url(#f105srwm0ovbdn)" style="stroke:#A80036;stroke-width:1.0;"/><path d="M606.5,36.5 L606.5,46.5 L616.5,46.5 L606.5,36.5 " fill="#FBFB77" style="stroke:#A80036;stroke-width:1.0;"/><text fill="#000000" font-family="sans-serif" font-size="13" lengthAdjust="spacing" textLength="101" x="496.5" y="53.5669">"セットメニュー"</text><text fill="#000000" font-family="sans-serif" font-size="13" lengthAdjust="spacing" textLength="105" x="496.5" y="68.6997">"お好みすし" など</text><!--MD5=[af0c6576f3873d0c5fad33f1cc8ae3c0]
class MenuSubCategory--><rect codeLine="30" fill="#FEFECE" filter="url(#f105srwm0ovbdn)" height="86.4141" id="MenuSubCategory" style="stroke:#A80036;stroke-width:1.5;" width="173" x="308" y="181"/><ellipse cx="335.15" cy="197" fill="#ADD1B2" rx="11" ry="11" style="stroke:#A80036;stroke-width:1.0;"/><path d="M339.2594,203 L331.5406,203 L331.5406,190.6094 L339.2594,190.6094 L339.2594,192.7656 L333.9938,192.7656 L333.9938,195.4375 L338.7594,195.4375 L338.7594,197.5938 L333.9938,197.5938 L333.9938,200.8438 L339.2594,200.8438 L339.2594,203 Z " fill="#000000"/><text fill="#000000" font-family="sans-serif" font-size="12" lengthAdjust="spacing" textLength="114" x="351.85" y="201.1543">MenuSubCategory</text><line style="stroke:#A80036;stroke-width:1.5;" x1="309" x2="480" y1="213" y2="213"/><ellipse cx="319" cy="224" rx="3" ry="3" style="stroke:#038048;stroke-width:1.0;fill:none;"/><text fill="#000000" font-family="sans-serif" font-size="11" lengthAdjust="spacing" textLength="51" x="328" y="227.2104">id: string</text><line style="stroke:#A80036;stroke-width:1.0;" x1="309" x2="480" y1="233.8047" y2="233.8047"/><text fill="#000000" font-family="sans-serif" font-size="11" lengthAdjust="spacing" textLength="73" x="314" y="248.0151">name: string</text><text fill="#000000" font-family="sans-serif" font-size="11" lengthAdjust="spacing" textLength="161" x="314" y="260.8198">parentCategoryId: string [fk]</text><path d="M516,166 L516,220 L481.1113,224 L516,228 L516,281.9297 A0,0 0 0 0 516,281.9297 L763,281.9297 A0,0 0 0 0 763,281.9297 L763,176 L753,166 L516,166 A0,0 0 0 0 516,166 " fill="#FBFB77" filter="url(#f105srwm0ovbdn)" style="stroke:#A80036;stroke-width:1.0;"/><path d="M753,166 L753,176 L763,176 L753,166 " fill="#FBFB77" style="stroke:#A80036;stroke-width:1.0;"/><text fill="#000000" font-family="sans-serif" font-size="13" lengthAdjust="spacing" textLength="119" x="522" y="183.0669">"盛り込み", "にぎり"</text><text fill="#000000" font-family="sans-serif" font-size="13" lengthAdjust="spacing" textLength="139" x="522" y="198.1997">"一皿100円(税別)" など</text><text fill="#000000" font-family="sans-serif" font-size="13" lengthAdjust="spacing" textLength="0" x="526" y="213.3325"/><text fill="#000000" font-family="sans-serif" font-size="13" lengthAdjust="spacing" textLength="157" x="522" y="228.4653">&lt;-&gt; Menuは中間テーブル</text><text fill="#000000" font-family="sans-serif" font-size="13" lengthAdjust="spacing" textLength="104" x="522" y="243.5981">にしても良いかも</text><text fill="#000000" font-family="sans-serif" font-size="13" lengthAdjust="spacing" textLength="145" x="522" y="258.731">("おすすめ" と "一皿X円"</text><text fill="#000000" font-family="sans-serif" font-size="13" lengthAdjust="spacing" textLength="226" x="522" y="273.8638">に重複して表示したい場合がありそう)</text><!--MD5=[f0268dd29ee89052933f031546cb1cab]
class Menu--><rect codeLine="46" fill="#FEFECE" filter="url(#f105srwm0ovbdn)" height="112.0234" id="Menu" style="stroke:#A80036;stroke-width:1.5;" width="157" x="316" y="342"/><ellipse cx="373.25" cy="358" fill="#ADD1B2" rx="11" ry="11" style="stroke:#A80036;stroke-width:1.0;"/><path d="M377.3594,364 L369.6406,364 L369.6406,351.6094 L377.3594,351.6094 L377.3594,353.7656 L372.0938,353.7656 L372.0938,356.4375 L376.8594,356.4375 L376.8594,358.5938 L372.0938,358.5938 L372.0938,361.8438 L377.3594,361.8438 L377.3594,364 Z " fill="#000000"/><text fill="#000000" font-family="sans-serif" font-size="12" lengthAdjust="spacing" textLength="34" x="393.75" y="362.1543">Menu</text><line style="stroke:#A80036;stroke-width:1.5;" x1="317" x2="472" y1="374" y2="374"/><ellipse cx="327" cy="385" rx="3" ry="3" style="stroke:#038048;stroke-width:1.0;fill:none;"/><text fill="#000000" font-family="sans-serif" font-size="11" lengthAdjust="spacing" textLength="51" x="336" y="388.2104">id: string</text><line style="stroke:#A80036;stroke-width:1.0;" x1="317" x2="472" y1="394.8047" y2="394.8047"/><text fill="#000000" font-family="sans-serif" font-size="11" lengthAdjust="spacing" textLength="73" x="322" y="409.0151">name: string</text><text fill="#000000" font-family="sans-serif" font-size="11" lengthAdjust="spacing" textLength="80" x="322" y="421.8198">price: number</text><text fill="#000000" font-family="sans-serif" font-size="11" lengthAdjust="spacing" textLength="131" x="322" y="434.6245">orderTypeId: string [fk]</text><text fill="#000000" font-family="sans-serif" font-size="11" lengthAdjust="spacing" textLength="145" x="322" y="447.4292">subCategoryId: string [fk]</text><path d="M508,378 L508,394 L473.377,398 L508,402 L508,418.2656 A0,0 0 0 0 508,418.2656 L691,418.2656 A0,0 0 0 0 691,418.2656 L691,388 L681,378 L508,378 A0,0 0 0 0 508,378 " fill="#FBFB77" filter="url(#f105srwm0ovbdn)" style="stroke:#A80036;stroke-width:1.0;"/><path d="M681,378 L681,388 L691,388 L681,378 " fill="#FBFB77" style="stroke:#A80036;stroke-width:1.0;"/><text fill="#000000" font-family="sans-serif" font-size="13" lengthAdjust="spacing" textLength="123" x="514" y="395.0669">"はな", "海鮮ちらし",</text><text fill="#000000" font-family="sans-serif" font-size="13" lengthAdjust="spacing" textLength="162" x="514" y="410.1997">"玉子", "炙りえんがわ" など</text><!--MD5=[c5c50656297be1246560d756e8993d29]
class SushiNeta--><rect codeLine="64" fill="#FEFECE" filter="url(#f105srwm0ovbdn)" height="73.6094" id="SushiNeta" style="stroke:#A80036;stroke-width:1.5;" width="96" x="346.5" y="660"/><ellipse cx="361.5" cy="676" fill="#ADD1B2" rx="11" ry="11" style="stroke:#A80036;stroke-width:1.0;"/><path d="M365.6094,682 L357.8906,682 L357.8906,669.6094 L365.6094,669.6094 L365.6094,671.7656 L360.3438,671.7656 L360.3438,674.4375 L365.1094,674.4375 L365.1094,676.5938 L360.3438,676.5938 L360.3438,679.8438 L365.6094,679.8438 L365.6094,682 Z " fill="#000000"/><text fill="#000000" font-family="sans-serif" font-size="12" lengthAdjust="spacing" textLength="64" x="375.5" y="680.1543">SushiNeta</text><line style="stroke:#A80036;stroke-width:1.5;" x1="347.5" x2="441.5" y1="692" y2="692"/><ellipse cx="357.5" cy="703" rx="3" ry="3" style="stroke:#038048;stroke-width:1.0;fill:none;"/><text fill="#000000" font-family="sans-serif" font-size="11" lengthAdjust="spacing" textLength="51" x="366.5" y="706.2104">id: string</text><line style="stroke:#A80036;stroke-width:1.0;" x1="347.5" x2="441.5" y1="712.8047" y2="712.8047"/><text fill="#000000" font-family="sans-serif" font-size="11" lengthAdjust="spacing" textLength="73" x="352.5" y="727.0151">name: string</text><path d="M477.5,677 L477.5,693 L442.6934,697 L477.5,701 L477.5,717.2656 A0,0 0 0 0 477.5,717.2656 L661.5,717.2656 A0,0 0 0 0 661.5,717.2656 L661.5,687 L651.5,677 L477.5,677 A0,0 0 0 0 477.5,677 " fill="#FBFB77" filter="url(#f105srwm0ovbdn)" style="stroke:#A80036;stroke-width:1.0;"/><path d="M651.5,677 L651.5,687 L661.5,687 L651.5,677 " fill="#FBFB77" style="stroke:#A80036;stroke-width:1.0;"/><text fill="#000000" font-family="sans-serif" font-size="13" lengthAdjust="spacing" textLength="163" x="483.5" y="694.0669">"玉子", "マグロ", "サーモン"</text><text fill="#000000" font-family="sans-serif" font-size="13" lengthAdjust="spacing" textLength="26" x="483.5" y="709.1997">など</text><!--MD5=[73091654239614f76de06dfa11cf5283]
class RegisterSushiNetaInMenu--><rect codeLine="74" fill="#FEFECE" filter="url(#f105srwm0ovbdn)" height="86.4141" id="RegisterSushiNetaInMenu" style="stroke:#A80036;stroke-width:1.5;" width="193" x="298" y="514"/><ellipse cx="313" cy="530" fill="#ADD1B2" rx="11" ry="11" style="stroke:#A80036;stroke-width:1.0;"/><path d="M317.1094,536 L309.3906,536 L309.3906,523.6094 L317.1094,523.6094 L317.1094,525.7656 L311.8438,525.7656 L311.8438,528.4375 L316.6094,528.4375 L316.6094,530.5938 L311.8438,530.5938 L311.8438,533.8438 L317.1094,533.8438 L317.1094,536 Z " fill="#000000"/><text fill="#000000" font-family="sans-serif" font-size="12" lengthAdjust="spacing" textLength="161" x="327" y="534.1543">RegisterSushiNetaInMenu</text><line style="stroke:#A80036;stroke-width:1.5;" x1="299" x2="490" y1="546" y2="546"/><ellipse cx="309" cy="557" rx="3" ry="3" style="stroke:#038048;stroke-width:1.0;fill:none;"/><text fill="#000000" font-family="sans-serif" font-size="11" lengthAdjust="spacing" textLength="51" x="318" y="560.2104">id: string</text><line style="stroke:#A80036;stroke-width:1.0;" x1="299" x2="490" y1="566.8047" y2="566.8047"/><text fill="#000000" font-family="sans-serif" font-size="11" lengthAdjust="spacing" textLength="105" x="304" y="581.0151">menuId: string [fk]</text><text fill="#000000" font-family="sans-serif" font-size="11" lengthAdjust="spacing" textLength="130" x="304" y="593.8198">sushiNetaId: string [fk]</text><!--MD5=[cf4d6237fcae255cd2e1656cf84a30e2]
class Order--><rect codeLine="81" fill="#FEFECE" filter="url(#f105srwm0ovbdn)" height="99.2188" id="Order" style="stroke:#A80036;stroke-width:1.5;" width="153" x="935" y="7"/><ellipse cx="989.75" cy="23" fill="#ADD1B2" rx="11" ry="11" style="stroke:#A80036;stroke-width:1.0;"/><path d="M993.8594,29 L986.1406,29 L986.1406,16.6094 L993.8594,16.6094 L993.8594,18.7656 L988.5938,18.7656 L988.5938,21.4375 L993.3594,21.4375 L993.3594,23.5938 L988.5938,23.5938 L988.5938,26.8438 L993.8594,26.8438 L993.8594,29 Z " fill="#000000"/><text fill="#000000" font-family="sans-serif" font-size="12" lengthAdjust="spacing" textLength="35" x="1010.25" y="27.1543">Order</text><line style="stroke:#A80036;stroke-width:1.5;" x1="936" x2="1087" y1="39" y2="39"/><ellipse cx="946" cy="50" rx="3" ry="3" style="stroke:#038048;stroke-width:1.0;fill:none;"/><text fill="#000000" font-family="sans-serif" font-size="11" lengthAdjust="spacing" textLength="51" x="955" y="53.2104">id: string</text><line style="stroke:#A80036;stroke-width:1.0;" x1="936" x2="1087" y1="59.8047" y2="59.8047"/><text fill="#000000" font-family="sans-serif" font-size="11" lengthAdjust="spacing" textLength="99" x="941" y="74.0151">userId: string [fk]</text><text fill="#000000" font-family="sans-serif" font-size="11" lengthAdjust="spacing" textLength="141" x="941" y="86.8198">orderStatusId: string [fk]</text><text fill="#000000" font-family="sans-serif" font-size="11" lengthAdjust="spacing" textLength="89" x="941" y="99.6245">orderedAt: date</text><path d="M801,44 L801,69.1328 A0,0 0 0 0 801,69.1328 L900,69.1328 A0,0 0 0 0 900,69.1328 L900,62 L934.97,56.5 L900,54 L900,54 L890,44 L801,44 A0,0 0 0 0 801,44 " fill="#FBFB77" filter="url(#f105srwm0ovbdn)" style="stroke:#A80036;stroke-width:1.0;"/><path d="M890,44 L890,54 L900,54 L890,44 " fill="#FBFB77" style="stroke:#A80036;stroke-width:1.0;"/><text fill="#000000" font-family="sans-serif" font-size="13" lengthAdjust="spacing" textLength="78" x="807" y="61.0669">注文のリスト</text><!--MD5=[a365ab721e21f8de8fc97216a4e49674]
class OrderMenu--><rect codeLine="92" fill="#FEFECE" filter="url(#f105srwm0ovbdn)" height="112.0234" id="OrderMenu" style="stroke:#A80036;stroke-width:1.5;" width="109" x="798" y="168"/><ellipse cx="816.6" cy="184" fill="#ADD1B2" rx="11" ry="11" style="stroke:#A80036;stroke-width:1.0;"/><path d="M820.7094,190 L812.9906,190 L812.9906,177.6094 L820.7094,177.6094 L820.7094,179.7656 L815.4438,179.7656 L815.4438,182.4375 L820.2094,182.4375 L820.2094,184.5938 L815.4438,184.5938 L815.4438,187.8438 L820.7094,187.8438 L820.7094,190 Z " fill="#000000"/><text fill="#000000" font-family="sans-serif" font-size="12" lengthAdjust="spacing" textLength="69" x="831.4" y="188.1543">OrderMenu</text><line style="stroke:#A80036;stroke-width:1.5;" x1="799" x2="906" y1="200" y2="200"/><ellipse cx="809" cy="211" rx="3" ry="3" style="stroke:#038048;stroke-width:1.0;fill:none;"/><text fill="#000000" font-family="sans-serif" font-size="11" lengthAdjust="spacing" textLength="51" x="818" y="214.2104">id: string</text><line style="stroke:#A80036;stroke-width:1.0;" x1="799" x2="906" y1="220.8047" y2="220.8047"/><text fill="#000000" font-family="sans-serif" font-size="11" lengthAdjust="spacing" textLength="82" x="804" y="235.0151">orderId: string</text><text fill="#000000" font-family="sans-serif" font-size="11" lengthAdjust="spacing" textLength="83" x="804" y="247.8198">menuId: string</text><text fill="#000000" font-family="sans-serif" font-size="11" lengthAdjust="spacing" textLength="77" x="804" y="260.6245">sabi: boolean</text><text fill="#000000" font-family="sans-serif" font-size="11" lengthAdjust="spacing" textLength="97" x="804" y="273.4292">quantity: number</text><!--MD5=[f26d234c195c8b782b9388706769a420]
class ShariSize--><rect codeLine="101" fill="#FEFECE" filter="url(#f105srwm0ovbdn)" height="73.6094" id="ShariSize" style="stroke:#A80036;stroke-width:1.5;" width="88" x="808.5" y="361"/><ellipse cx="823.5" cy="377" fill="#ADD1B2" rx="11" ry="11" style="stroke:#A80036;stroke-width:1.0;"/><path d="M827.6094,383 L819.8906,383 L819.8906,370.6094 L827.6094,370.6094 L827.6094,372.7656 L822.3438,372.7656 L822.3438,375.4375 L827.1094,375.4375 L827.1094,377.5938 L822.3438,377.5938 L822.3438,380.8438 L827.6094,380.8438 L827.6094,383 Z " fill="#000000"/><text fill="#000000" font-family="sans-serif" font-size="12" lengthAdjust="spacing" textLength="56" x="837.5" y="381.1543">ShariSize</text><line style="stroke:#A80036;stroke-width:1.5;" x1="809.5" x2="895.5" y1="393" y2="393"/><ellipse cx="819.5" cy="404" rx="3" ry="3" style="stroke:#038048;stroke-width:1.0;fill:none;"/><text fill="#000000" font-family="sans-serif" font-size="11" lengthAdjust="spacing" textLength="51" x="828.5" y="407.2104">id: string</text><line style="stroke:#A80036;stroke-width:1.0;" x1="809.5" x2="895.5" y1="413.8047" y2="413.8047"/><text fill="#000000" font-family="sans-serif" font-size="11" lengthAdjust="spacing" textLength="63" x="814.5" y="428.0151">size: string</text><path d="M759.5,537 L759.5,577.2656 A0,0 0 0 0 759.5,577.2656 L945.5,577.2656 A0,0 0 0 0 945.5,577.2656 L945.5,547 L935.5,537 L856.5,537 L852.5,435.2784 L848.5,537 L759.5,537 A0,0 0 0 0 759.5,537 " fill="#FBFB77" filter="url(#f105srwm0ovbdn)" style="stroke:#A80036;stroke-width:1.0;"/><path d="M935.5,537 L935.5,547 L945.5,547 L935.5,537 " fill="#FBFB77" style="stroke:#A80036;stroke-width:1.0;"/><text fill="#000000" font-family="sans-serif" font-size="13" lengthAdjust="spacing" textLength="165" x="765.5" y="554.0669">"small", "medium", "large"</text><text fill="#000000" font-family="sans-serif" font-size="13" lengthAdjust="spacing" textLength="52" x="765.5" y="569.1997">のどれか</text><!--MD5=[3fd616f346a44cd59a91eb10b19e157c]
class User--><rect codeLine="111" fill="#FEFECE" filter="url(#f105srwm0ovbdn)" height="86.4141" id="User" style="stroke:#A80036;stroke-width:1.5;" width="138" x="942.5" y="181"/><ellipse cx="992.75" cy="197" fill="#ADD1B2" rx="11" ry="11" style="stroke:#A80036;stroke-width:1.0;"/><path d="M996.8594,203 L989.1406,203 L989.1406,190.6094 L996.8594,190.6094 L996.8594,192.7656 L991.5938,192.7656 L991.5938,195.4375 L996.3594,195.4375 L996.3594,197.5938 L991.5938,197.5938 L991.5938,200.8438 L996.8594,200.8438 L996.8594,203 Z " fill="#000000"/><text fill="#000000" font-family="sans-serif" font-size="12" lengthAdjust="spacing" textLength="29" x="1013.25" y="201.1543">User</text><line style="stroke:#A80036;stroke-width:1.5;" x1="943.5" x2="1079.5" y1="213" y2="213"/><ellipse cx="953.5" cy="224" rx="3" ry="3" style="stroke:#038048;stroke-width:1.0;fill:none;"/><text fill="#000000" font-family="sans-serif" font-size="11" lengthAdjust="spacing" textLength="51" x="962.5" y="227.2104">id: string</text><line style="stroke:#A80036;stroke-width:1.0;" x1="943.5" x2="1079.5" y1="233.8047" y2="233.8047"/><text fill="#000000" font-family="sans-serif" font-size="11" lengthAdjust="spacing" textLength="73" x="948.5" y="248.0151">name: string</text><text fill="#000000" font-family="sans-serif" font-size="11" lengthAdjust="spacing" textLength="126" x="948.5" y="260.8198">phone_number: string</text><!--MD5=[de626c0cb0f072ae90ffb25031374c19]
class OrderStatus--><rect codeLine="118" fill="#FEFECE" filter="url(#f105srwm0ovbdn)" height="73.6094" id="OrderStatus" style="stroke:#A80036;stroke-width:1.5;" width="108" x="1115.5" y="187"/><ellipse cx="1130.5" cy="203" fill="#ADD1B2" rx="11" ry="11" style="stroke:#A80036;stroke-width:1.0;"/><path d="M1134.6094,209 L1126.8906,209 L1126.8906,196.6094 L1134.6094,196.6094 L1134.6094,198.7656 L1129.3438,198.7656 L1129.3438,201.4375 L1134.1094,201.4375 L1134.1094,203.5938 L1129.3438,203.5938 L1129.3438,206.8438 L1134.6094,206.8438 L1134.6094,209 Z " fill="#000000"/><text fill="#000000" font-family="sans-serif" font-size="12" lengthAdjust="spacing" textLength="76" x="1144.5" y="207.1543">OrderStatus</text><line style="stroke:#A80036;stroke-width:1.5;" x1="1116.5" x2="1222.5" y1="219" y2="219"/><ellipse cx="1126.5" cy="230" rx="3" ry="3" style="stroke:#038048;stroke-width:1.0;fill:none;"/><text fill="#000000" font-family="sans-serif" font-size="11" lengthAdjust="spacing" textLength="51" x="1135.5" y="233.2104">id: string</text><line style="stroke:#A80036;stroke-width:1.0;" x1="1116.5" x2="1222.5" y1="239.8047" y2="239.8047"/><text fill="#000000" font-family="sans-serif" font-size="11" lengthAdjust="spacing" textLength="77" x="1121.5" y="254.0151">status: string</text><path d="M1100,370.5 L1100,425.8984 A0,0 0 0 0 1100,425.8984 L1239,425.8984 A0,0 0 0 0 1239,425.8984 L1239,380.5 L1229,370.5 L1173.5,370.5 L1169.5,261.3274 L1165.5,370.5 L1100,370.5 A0,0 0 0 0 1100,370.5 " fill="#FBFB77" filter="url(#f105srwm0ovbdn)" style="stroke:#A80036;stroke-width:1.0;"/><path d="M1229,370.5 L1229,380.5 L1239,380.5 L1229,370.5 " fill="#FBFB77" style="stroke:#A80036;stroke-width:1.0;"/><text fill="#000000" font-family="sans-serif" font-size="13" lengthAdjust="spacing" textLength="62" x="1106" y="387.5669">"注文受付"</text><text fill="#000000" font-family="sans-serif" font-size="13" lengthAdjust="spacing" textLength="75" x="1106" y="402.6997">"支払い済み"</text><text fill="#000000" font-family="sans-serif" font-size="13" lengthAdjust="spacing" textLength="118" x="1106" y="417.8325">"受け渡し済み" など</text><!--MD5=[1f47e81ccb398e19b7e93a3419bd4406]
link OrderType to RegisterMenuInOrderType--><path codeLine="59" d="M176.5,101.7639 C176.5,123.6215 176.5,149.9485 176.5,172.563 " fill="none" id="OrderType-RegisterMenuInOrderType" style="stroke:#A80036;stroke-width:1.0;"/><line style="stroke:#A80036;stroke-width:1.0;" x1="176.5" x2="182.5" y1="172.7115" y2="180.7115"/><line style="stroke:#A80036;stroke-width:1.0;" x1="176.5" x2="170.5" y1="172.7115" y2="180.7115"/><line style="stroke:#A80036;stroke-width:1.0;" x1="176.5" x2="176.5" y1="172.7115" y2="180.7115"/><ellipse cx="176.5" cy="166.7115" rx="4" ry="4" style="stroke:#A80036;stroke-width:1.0;fill:none;"/><line style="stroke:#A80036;stroke-width:1.0;fill:none;" x1="172.5" x2="180.5" y1="97.6737" y2="97.6737"/><line style="stroke:#A80036;stroke-width:1.0;fill:none;" x1="172.5" x2="180.5" y1="100.6737" y2="100.6737"/><line style="stroke:#A80036;stroke-width:1.0;fill:none;" x1="176.5" x2="176.5" y1="101.6737" y2="93.6737"/><!--MD5=[e63b882337a0412cd904c3a1e35c96c2]
link RegisterMenuInOrderType to Menu--><path codeLine="60" d="M236.7823,272.1152 C261.7879,292.0738 291.1002,315.4699 317.6254,336.6414 " fill="none" id="RegisterMenuInOrderType-Menu" style="stroke:#A80036;stroke-width:1.0;"/><line style="stroke:#A80036;stroke-width:1.0;" x1="323.3165" x2="318.3259" y1="336.0658" y2="342.3184"/><line style="stroke:#A80036;stroke-width:1.0;" x1="320.9718" x2="315.9812" y1="334.1944" y2="340.4469"/><line style="stroke:#A80036;stroke-width:1.0;" x1="317.695" x2="323.9475" y1="336.6968" y2="341.6874"/><line style="stroke:#A80036;stroke-width:1.0;" x1="236.6402" x2="226.6448" y1="272.0018" y2="271.7006"/><line style="stroke:#A80036;stroke-width:1.0;" x1="236.6402" x2="234.1306" y1="272.0018" y2="262.3218"/><line style="stroke:#A80036;stroke-width:1.0;" x1="236.6402" x2="230.3877" y1="272.0018" y2="267.0112"/><ellipse cx="241.3297" cy="275.7447" rx="4" ry="4" style="stroke:#A80036;stroke-width:1.0;fill:none;"/><!--MD5=[e64715288975d269d78d4bd79c7422d5]
link MenuCategory to MenuSubCategory--><path codeLine="61" d="M394.5,101.7639 C394.5,123.6215 394.5,149.9485 394.5,172.563 " fill="none" id="MenuCategory-MenuSubCategory" style="stroke:#A80036;stroke-width:1.0;"/><line style="stroke:#A80036;stroke-width:1.0;" x1="394.5" x2="400.5" y1="172.7115" y2="180.7115"/><line style="stroke:#A80036;stroke-width:1.0;" x1="394.5" x2="388.5" y1="172.7115" y2="180.7115"/><line style="stroke:#A80036;stroke-width:1.0;" x1="394.5" x2="394.5" y1="172.7115" y2="180.7115"/><ellipse cx="394.5" cy="166.7115" rx="4" ry="4" style="stroke:#A80036;stroke-width:1.0;fill:none;"/><line style="stroke:#A80036;stroke-width:1.0;fill:none;" x1="390.5" x2="398.5" y1="97.6737" y2="97.6737"/><line style="stroke:#A80036;stroke-width:1.0;fill:none;" x1="390.5" x2="398.5" y1="100.6737" y2="100.6737"/><line style="stroke:#A80036;stroke-width:1.0;fill:none;" x1="394.5" x2="394.5" y1="101.6737" y2="93.6737"/><!--MD5=[fab60f23820f1e318afaff926969b665]
link MenuSubCategory to Menu--><path codeLine="62" d="M394.5,275.1423 C394.5,293.4284 394.5,314.2762 394.5,333.5404 " fill="none" id="MenuSubCategory-Menu" style="stroke:#A80036;stroke-width:1.0;"/><line style="stroke:#A80036;stroke-width:1.0;" x1="394.5" x2="400.5" y1="333.6874" y2="341.6874"/><line style="stroke:#A80036;stroke-width:1.0;" x1="394.5" x2="388.5" y1="333.6874" y2="341.6874"/><line style="stroke:#A80036;stroke-width:1.0;" x1="394.5" x2="394.5" y1="333.6874" y2="341.6874"/><ellipse cx="394.5" cy="327.6874" rx="4" ry="4" style="stroke:#A80036;stroke-width:1.0;fill:none;"/><line style="stroke:#A80036;stroke-width:1.0;fill:none;" x1="390.5" x2="398.5" y1="271.0112" y2="271.0112"/><line style="stroke:#A80036;stroke-width:1.0;fill:none;" x1="390.5" x2="398.5" y1="274.0112" y2="274.0112"/><line style="stroke:#A80036;stroke-width:1.0;fill:none;" x1="394.5" x2="394.5" y1="275.0112" y2="267.0112"/><!--MD5=[551ac56825aa25e90762dd9c2e729255]
link Order to OrderMenu--><path codeLine="129" d="M958.5386,112.2927 C943.4065,128.2338 926.8253,145.7013 911.3631,161.9901 " fill="none" id="Order-OrderMenu" style="stroke:#A80036;stroke-width:1.0;"/><line style="stroke:#A80036;stroke-width:1.0;" x1="911.2296" x2="910.0735" y1="162.1307" y2="172.0637"/><line style="stroke:#A80036;stroke-width:1.0;" x1="911.2296" x2="901.3703" y1="162.1307" y2="163.8021"/><line style="stroke:#A80036;stroke-width:1.0;" x1="911.2296" x2="905.7219" y1="162.1307" y2="167.9329"/><ellipse cx="915.3604" cy="157.7791" rx="4" ry="4" style="stroke:#A80036;stroke-width:1.0;fill:none;"/><line style="stroke:#A80036;stroke-width:1.0;fill:none;" x1="958.5703" x2="964.3725" y1="106.4493" y2="111.9569"/><line style="stroke:#A80036;stroke-width:1.0;fill:none;" x1="956.5049" x2="962.3071" y1="108.6251" y2="114.1328"/><line style="stroke:#A80036;stroke-width:1.0;fill:none;" x1="958.7175" x2="964.2252" y1="112.1042" y2="106.302"/><!--MD5=[6f8b731c678b15fcafa87aa391fc1121]
link Order to User--><path codeLine="130" d="M1011.5,114.5184 C1011.5,133.4267 1011.5,154.2732 1011.5,172.6566 " fill="none" id="Order-User" style="stroke:#A80036;stroke-width:1.0;"/><line style="stroke:#A80036;stroke-width:1.0;" x1="1015.5" x2="1007.5" y1="176.9139" y2="176.9139"/><line style="stroke:#A80036;stroke-width:1.0;" x1="1015.5" x2="1007.5" y1="173.9139" y2="173.9139"/><line style="stroke:#A80036;stroke-width:1.0;" x1="1011.5" x2="1011.5" y1="172.9139" y2="180.9139"/><line style="stroke:#A80036;stroke-width:1.0;" x1="1011.5" x2="1005.5" y1="114.302" y2="106.302"/><line style="stroke:#A80036;stroke-width:1.0;" x1="1011.5" x2="1017.5" y1="114.302" y2="106.302"/><line style="stroke:#A80036;stroke-width:1.0;" x1="1011.5" x2="1011.5" y1="114.302" y2="106.302"/><ellipse cx="1011.5" cy="120.302" rx="4" ry="4" style="stroke:#A80036;stroke-width:1.0;fill:none;"/><!--MD5=[d7a12ed011a57068e70e07d9626e1fb6]
link Order to OrderStatus--><path codeLine="131" d="M1063.9816,112.1371 C1085.0809,134.5051 1109.0351,159.8996 1128.7812,180.833 " fill="none" id="Order-OrderStatus" style="stroke:#A80036;stroke-width:1.0;"/><line style="stroke:#A80036;stroke-width:1.0;" x1="1134.6641" x2="1128.8446" y1="181.2401" y2="186.7294"/><line style="stroke:#A80036;stroke-width:1.0;" x1="1132.6056" x2="1126.786" y1="179.0577" y2="184.5471"/><line style="stroke:#A80036;stroke-width:1.0;" x1="1129.0096" x2="1134.499" y1="181.075" y2="186.8945"/><line style="stroke:#A80036;stroke-width:1.0;" x1="1063.9668" x2="1054.1128" y1="112.1215" y2="110.419"/><line style="stroke:#A80036;stroke-width:1.0;" x1="1063.9668" x2="1062.842" y1="112.1215" y2="102.185"/><line style="stroke:#A80036;stroke-width:1.0;" x1="1063.9668" x2="1058.4774" y1="112.1215" y2="106.302"/><ellipse cx="1068.0838" cy="116.4862" rx="4" ry="4" style="stroke:#A80036;stroke-width:1.0;fill:none;"/><!--MD5=[09a627d2780fdb8707f773e65b357a01]
link OrderMenu to Menu--><path codeLine="132" d="M790.7562,276.5766 C787.3747,278.5479 783.9473,280.3726 780.5,282 C661.4778,338.1888 613.3988,294.8902 490.5,342 C487.1669,343.2776 483.8142,344.6631 480.4621,346.1341 " fill="none" id="OrderMenu-Menu" style="stroke:#A80036;stroke-width:1.0;"/><line style="stroke:#A80036;stroke-width:1.0;" x1="478.4331" x2="475.109" y1="351.4586" y2="344.1819"/><line style="stroke:#A80036;stroke-width:1.0;" x1="481.1619" x2="477.8377" y1="350.212" y2="342.9353"/><line style="stroke:#A80036;stroke-width:1.0;" x1="480.4094" x2="473.1327" y1="346.1582" y2="349.4823"/><line style="stroke:#A80036;stroke-width:1.0;" x1="790.8153" x2="794.4745" y1="276.5402" y2="267.2338"/><line style="stroke:#A80036;stroke-width:1.0;" x1="790.8153" x2="800.7741" y1="276.5402" y2="277.4472"/><line style="stroke:#A80036;stroke-width:1.0;" x1="790.8153" x2="797.6243" y1="276.5402" y2="272.3405"/><ellipse cx="785.7086" cy="279.69" rx="4" ry="4" style="stroke:#A80036;stroke-width:1.0;fill:none;"/><!--MD5=[6df0da86f0ada7e74bbe8ff3b89bb734]
link OrderMenu to ShariSize--><path codeLine="133" d="M852.5,288.1878 C852.5,309.5682 852.5,332.9264 852.5,352.5821 " fill="none" id="OrderMenu-ShariSize" style="stroke:#A80036;stroke-width:1.0;"/><line style="stroke:#A80036;stroke-width:1.0;" x1="856.5" x2="848.5" y1="356.7627" y2="356.7627"/><line style="stroke:#A80036;stroke-width:1.0;" x1="856.5" x2="848.5" y1="353.7627" y2="353.7627"/><line style="stroke:#A80036;stroke-width:1.0;" x1="852.5" x2="852.5" y1="352.7627" y2="360.7627"/><line style="stroke:#A80036;stroke-width:1.0;" x1="852.5" x2="846.5" y1="288.0125" y2="280.0125"/><line style="stroke:#A80036;stroke-width:1.0;" x1="852.5" x2="858.5" y1="288.0125" y2="280.0125"/><line style="stroke:#A80036;stroke-width:1.0;" x1="852.5" x2="852.5" y1="288.0125" y2="280.0125"/><ellipse cx="852.5" cy="294.0125" rx="4" ry="4" style="stroke:#A80036;stroke-width:1.0;fill:none;"/><!--MD5=[6211876ce405877f129187e1f7c3b748]
link Menu to RegisterSushiNetaInMenu--><path codeLine="135" d="M394.5,462.4653 C394.5,476.808 394.5,491.8284 394.5,505.566 " fill="none" id="Menu-RegisterSushiNetaInMenu" style="stroke:#A80036;stroke-width:1.0;"/><line style="stroke:#A80036;stroke-width:1.0;" x1="394.5" x2="400.5" y1="505.9363" y2="513.9363"/><line style="stroke:#A80036;stroke-width:1.0;" x1="394.5" x2="388.5" y1="505.9363" y2="513.9363"/><line style="stroke:#A80036;stroke-width:1.0;" x1="394.5" x2="394.5" y1="505.9363" y2="513.9363"/><ellipse cx="394.5" cy="499.9363" rx="4" ry="4" style="stroke:#A80036;stroke-width:1.0;fill:none;"/><line style="stroke:#A80036;stroke-width:1.0;fill:none;" x1="390.5" x2="398.5" y1="458.0575" y2="458.0575"/><line style="stroke:#A80036;stroke-width:1.0;fill:none;" x1="390.5" x2="398.5" y1="461.0575" y2="461.0575"/><line style="stroke:#A80036;stroke-width:1.0;fill:none;" x1="394.5" x2="394.5" y1="462.0575" y2="454.0575"/><!--MD5=[f4ae530af5a7ec094a2fa022231aa97f]
link RegisterSushiNetaInMenu to SushiNeta--><path codeLine="136" d="M394.5,608.3812 C394.5,622.5207 394.5,637.7531 394.5,651.5334 " fill="none" id="RegisterSushiNetaInMenu-SushiNeta" style="stroke:#A80036;stroke-width:1.0;"/><line style="stroke:#A80036;stroke-width:1.0;" x1="398.5" x2="390.5" y1="655.9032" y2="655.9032"/><line style="stroke:#A80036;stroke-width:1.0;" x1="398.5" x2="390.5" y1="652.9032" y2="652.9032"/><line style="stroke:#A80036;stroke-width:1.0;" x1="394.5" x2="394.5" y1="651.9032" y2="659.9032"/><line style="stroke:#A80036;stroke-width:1.0;" x1="394.5" x2="388.5" y1="608.147" y2="600.147"/><line style="stroke:#A80036;stroke-width:1.0;" x1="394.5" x2="400.5" y1="608.147" y2="600.147"/><line style="stroke:#A80036;stroke-width:1.0;" x1="394.5" x2="394.5" y1="608.147" y2="600.147"/><ellipse cx="394.5" cy="614.147" rx="4" ry="4" style="stroke:#A80036;stroke-width:1.0;fill:none;"/><!--MD5=[c946c49e6c54226db977288969ea1377]
@startuml
Entity OrderType {
  + id: string
  - -
  type: string
}
note left
type は
"持ち帰り",
"店内",
"配達" など
end note

Entity RegisterMenuInOrderType {
  + id: string
  - -
  orderTypeId: string [fk]
  menuId: string[fk]
}

Entity MenuCategory {
  + id: string
  - -
  name: string
}
note right
"セットメニュー"
"お好みすし" など
end note

Entity MenuSubCategory {
  + id: string
  - -
  name: string
  parentCategoryId: string [fk]
}
note right
"盛り込み", "にぎり"
"一皿100円(税別)" など

<-> Menuは中間テーブル
にしても良いかも
("おすすめ" と "一皿X円"
に重複して表示したい場合がありそう)
end note

Entity Menu {
  + id: string
  - -
  name: string
  price: number
  orderTypeId: string [fk]
  subCategoryId: string [fk]
}
note right
"はな", "海鮮ちらし",
"玉子", "炙りえんがわ" など
end note

OrderType ||- -o{ RegisterMenuInOrderType
RegisterMenuInOrderType }o- -|| Menu
MenuCategory ||- -o{ MenuSubCategory
MenuSubCategory ||- -o{ Menu

Entity SushiNeta {
  + id: string
  - -
  name: string
}
note right
"玉子", "マグロ", "サーモン"
など
end note

Entity RegisterSushiNetaInMenu {
  + id: string
  - -
  menuId: string [fk]
  sushiNetaId: string [fk]
}

Entity Order {
  + id: string
  - -
  userId: string [fk]
  orderStatusId: string [fk]
  orderedAt: date
}
note left
注文のリスト
end note

Entity OrderMenu {
  + id: string
  - -
  orderId: string
  menuId: string
  sabi: boolean
  quantity: number
}

Entity ShariSize {
  + id: string
  - -
  size: string
}
note bottom
"small", "medium", "large"
のどれか
end note

Entity User {
  + id: string
  - -
  name: string
  phone_number: string
}

Entity OrderStatus {
  + id: string
  - -
  status: string
}
note bottom
"注文受付"
"支払い済み"
"受け渡し済み" など
end note

Order ||- -o{ OrderMenu
Order }o- -|| User
Order }o- -|| OrderStatus
OrderMenu }o- -|| Menu
OrderMenu }o- -|| ShariSize

Menu ||- -o{ RegisterSushiNetaInMenu
RegisterSushiNetaInMenu }o- -|| SushiNeta
@enduml

PlantUML version 1.2021.5(Sun Apr 25 11:20:28 UTC 2021)
(GPL source distribution)
Java Runtime: OpenJDK Runtime Environment
JVM: OpenJDK 64-Bit Server VM
Default Encoding: UTF-8
Language: en
Country: null
--></g></svg>