<?xml version="1.0" encoding="UTF-8" standalone="no"?><svg xmlns="http://www.w3.org/2000/svg" xmlns:xlink="http://www.w3.org/1999/xlink" contentScriptType="application/ecmascript" contentStyleType="text/css" height="942px" preserveAspectRatio="none" style="width:1291px;height:942px;" version="1.1" viewBox="0 0 1291 942" width="1291px" zoomAndPan="magnify"><defs><filter height="300%" id="fq5nx8w76feep" width="300%" x="-1" y="-1"><feGaussianBlur result="blurOut" stdDeviation="2.0"/><feColorMatrix in="blurOut" result="blurOut2" type="matrix" values="0 0 0 0 0 0 0 0 0 0 0 0 0 0 0 0 0 0 .4 0"/><feOffset dx="4.0" dy="4.0" in="blurOut2" result="blurOut3"/><feBlend in="SourceGraphic" in2="blurOut3" mode="normal"/></filter></defs><g><!--MD5=[6bb0015db480f658d12a8b4e40e9e0b6]
cluster メニュー表示--><polygon fill="#FFFFFF" filter="url(#fq5nx8w76feep)" points="64,6,154,6,161,28.2969,677,28.2969,677,433,64,433,64,6" style="stroke:#000000;stroke-width:1.5;"/><line style="stroke:#000000;stroke-width:1.5;" x1="64" x2="161" y1="28.2969" y2="28.2969"/><text fill="#000000" font-family="sans-serif" font-size="14" font-weight="bold" lengthAdjust="spacing" textLength="84" x="68" y="20.9951">メニュー表示</text><!--MD5=[afbfc82707dce1c65cb74dcb5db5b180]
cluster 注文管理--><polygon fill="#FFFFFF" filter="url(#fq5nx8w76feep)" points="824,140,886,140,893,162.2969,1274,162.2969,1274,754,824,754,824,140" style="stroke:#000000;stroke-width:1.5;"/><line style="stroke:#000000;stroke-width:1.5;" x1="824" x2="893" y1="162.2969" y2="162.2969"/><text fill="#000000" font-family="sans-serif" font-size="14" font-weight="bold" lengthAdjust="spacing" textLength="56" x="828" y="154.9951">注文管理</text><!--MD5=[246bcad7f55146ac913f487de09a5c5d]
cluster 寿司ネタ集計--><polygon fill="#FFFFFF" filter="url(#fq5nx8w76feep)" points="16,649.5,106,649.5,113,671.7969,425,671.7969,425,930,16,930,16,649.5" style="stroke:#000000;stroke-width:1.5;"/><line style="stroke:#000000;stroke-width:1.5;" x1="16" x2="113" y1="671.7969" y2="671.7969"/><text fill="#000000" font-family="sans-serif" font-size="14" font-weight="bold" lengthAdjust="spacing" textLength="84" x="20" y="664.4951">寿司ネタ集計</text><!--MD5=[1534df4d8e42cf05efe077cbaf0a3a72]
class MenuCategory--><rect codeLine="15" fill="#FEFECE" filter="url(#fq5nx8w76feep)" height="73.6094" id="MenuCategory" style="stroke:#A80036;stroke-width:1.5;" width="122" x="268" y="33"/><ellipse cx="283" cy="49" fill="#ADD1B2" rx="11" ry="11" style="stroke:#A80036;stroke-width:1.0;"/><path d="M287.1094,55 L279.3906,55 L279.3906,42.6094 L287.1094,42.6094 L287.1094,44.7656 L281.8438,44.7656 L281.8438,47.4375 L286.6094,47.4375 L286.6094,49.5938 L281.8438,49.5938 L281.8438,52.8438 L287.1094,52.8438 L287.1094,55 Z " fill="#000000"/><text fill="#000000" font-family="sans-serif" font-size="12" lengthAdjust="spacing" textLength="90" x="297" y="53.1543">MenuCategory</text><line style="stroke:#A80036;stroke-width:1.5;" x1="269" x2="389" y1="65" y2="65"/><ellipse cx="279" cy="76" rx="3" ry="3" style="stroke:#038048;stroke-width:1.0;fill:none;"/><text fill="#000000" font-family="sans-serif" font-size="11" lengthAdjust="spacing" textLength="51" x="288" y="79.2104">id: string</text><line style="stroke:#A80036;stroke-width:1.0;" x1="269" x2="389" y1="85.8047" y2="85.8047"/><text fill="#000000" font-family="sans-serif" font-size="11" lengthAdjust="spacing" textLength="73" x="274" y="100.0151">name: string</text><path d="M107,50 L107,90.2656 A0,0 0 0 0 107,90.2656 L233,90.2656 A0,0 0 0 0 233,90.2656 L233,74 L267.9011,70 L233,66 L233,60 L223,50 L107,50 A0,0 0 0 0 107,50 " fill="#FBFB77" filter="url(#fq5nx8w76feep)" style="stroke:#A80036;stroke-width:1.0;"/><path d="M223,50 L223,60 L233,60 L223,50 " fill="#FBFB77" style="stroke:#A80036;stroke-width:1.0;"/><text fill="#000000" font-family="sans-serif" font-size="13" lengthAdjust="spacing" textLength="101" x="113" y="67.0669">"セットメニュー"</text><text fill="#000000" font-family="sans-serif" font-size="13" lengthAdjust="spacing" textLength="105" x="113" y="82.1997">"お好みすし" など</text><!--MD5=[af0c6576f3873d0c5fad33f1cc8ae3c0]
class MenuSubCategory--><rect codeLine="25" fill="#FEFECE" filter="url(#fq5nx8w76feep)" height="86.4141" id="MenuSubCategory" style="stroke:#A80036;stroke-width:1.5;" width="173" x="267.5" y="173.5"/><ellipse cx="294.65" cy="189.5" fill="#ADD1B2" rx="11" ry="11" style="stroke:#A80036;stroke-width:1.0;"/><path d="M298.7594,195.5 L291.0406,195.5 L291.0406,183.1094 L298.7594,183.1094 L298.7594,185.2656 L293.4938,185.2656 L293.4938,187.9375 L298.2594,187.9375 L298.2594,190.0938 L293.4938,190.0938 L293.4938,193.3438 L298.7594,193.3438 L298.7594,195.5 Z " fill="#000000"/><text fill="#000000" font-family="sans-serif" font-size="12" lengthAdjust="spacing" textLength="114" x="311.35" y="193.6543">MenuSubCategory</text><line style="stroke:#A80036;stroke-width:1.5;" x1="268.5" x2="439.5" y1="205.5" y2="205.5"/><ellipse cx="278.5" cy="216.5" rx="3" ry="3" style="stroke:#038048;stroke-width:1.0;fill:none;"/><text fill="#000000" font-family="sans-serif" font-size="11" lengthAdjust="spacing" textLength="51" x="287.5" y="219.7104">id: string</text><line style="stroke:#A80036;stroke-width:1.0;" x1="268.5" x2="439.5" y1="226.3047" y2="226.3047"/><text fill="#000000" font-family="sans-serif" font-size="11" lengthAdjust="spacing" textLength="73" x="273.5" y="240.5151">name: string</text><text fill="#000000" font-family="sans-serif" font-size="11" lengthAdjust="spacing" textLength="161" x="273.5" y="253.3198">parentCategoryId: string [fk]</text><path d="M72,189 L72,244.3984 A0,0 0 0 0 72,244.3984 L232,244.3984 A0,0 0 0 0 232,244.3984 L232,220.5 L267.3295,216.5 L232,212.5 L232,199 L222,189 L72,189 A0,0 0 0 0 72,189 " fill="#FBFB77" filter="url(#fq5nx8w76feep)" style="stroke:#A80036;stroke-width:1.0;"/><path d="M222,189 L222,199 L232,199 L222,189 " fill="#FBFB77" style="stroke:#A80036;stroke-width:1.0;"/><text fill="#000000" font-family="sans-serif" font-size="13" lengthAdjust="spacing" textLength="119" x="78" y="206.0669">"盛り込み", "にぎり"</text><text fill="#000000" font-family="sans-serif" font-size="13" lengthAdjust="spacing" textLength="139" x="78" y="221.1997">"一皿100円(税別)" など</text><text fill="#000000" font-family="sans-serif" font-size="13" lengthAdjust="spacing" textLength="0" x="82" y="236.3325"/><!--MD5=[b35f01e0b64dae4ff14cf72883b85afb]
class RegisterMenuInMenuSubCategory--><rect codeLine="37" fill="#FEFECE" filter="url(#fq5nx8w76feep)" height="86.4141" id="RegisterMenuInMenuSubCategory" style="stroke:#A80036;stroke-width:1.5;" width="243" x="349.5" y="339"/><ellipse cx="364.5" cy="355" fill="#ADD1B2" rx="11" ry="11" style="stroke:#A80036;stroke-width:1.0;"/><path d="M368.6094,361 L360.8906,361 L360.8906,348.6094 L368.6094,348.6094 L368.6094,350.7656 L363.3438,350.7656 L363.3438,353.4375 L368.1094,353.4375 L368.1094,355.5938 L363.3438,355.5938 L363.3438,358.8438 L368.6094,358.8438 L368.6094,361 Z " fill="#000000"/><text fill="#000000" font-family="sans-serif" font-size="12" lengthAdjust="spacing" textLength="211" x="378.5" y="359.1543">RegisterMenuInMenuSubCategory</text><line style="stroke:#A80036;stroke-width:1.5;" x1="350.5" x2="591.5" y1="371" y2="371"/><ellipse cx="360.5" cy="382" rx="3" ry="3" style="stroke:#038048;stroke-width:1.0;fill:none;"/><text fill="#000000" font-family="sans-serif" font-size="11" lengthAdjust="spacing" textLength="51" x="369.5" y="385.2104">id: string</text><line style="stroke:#A80036;stroke-width:1.0;" x1="350.5" x2="591.5" y1="391.8047" y2="391.8047"/><text fill="#000000" font-family="sans-serif" font-size="11" lengthAdjust="spacing" textLength="105" x="355.5" y="406.0151">menuId: string [fk]</text><text fill="#000000" font-family="sans-serif" font-size="11" lengthAdjust="spacing" textLength="145" x="355.5" y="418.8198">subCategoryId: string [fk]</text><path d="M72,346.5 L72,417.0313 A0,0 0 0 0 72,417.0313 L314,417.0313 A0,0 0 0 0 314,417.0313 L314,386 L349.3273,382 L314,378 L314,356.5 L304,346.5 L72,346.5 A0,0 0 0 0 72,346.5 " fill="#FBFB77" filter="url(#fq5nx8w76feep)" style="stroke:#A80036;stroke-width:1.0;"/><path d="M304,346.5 L304,356.5 L314,356.5 L304,346.5 " fill="#FBFB77" style="stroke:#A80036;stroke-width:1.0;"/><text fill="#000000" font-family="sans-serif" font-size="13" lengthAdjust="spacing" textLength="91" x="78" y="363.5669">あるメニューを</text><text fill="#000000" font-family="sans-serif" font-size="13" lengthAdjust="spacing" textLength="140" x="78" y="378.6997">"おすすめ" と "一皿X円"</text><text fill="#000000" font-family="sans-serif" font-size="13" lengthAdjust="spacing" textLength="221" x="78" y="393.8325">に重複して表示したい場合がありそう</text><text fill="#000000" font-family="sans-serif" font-size="13" lengthAdjust="spacing" textLength="130" x="78" y="408.9653">なので多対多とした。</text><!--MD5=[e511512a68bbbc8475bda5b365b2dd94]
class OrderType--><rect codeLine="50" fill="#FEFECE" filter="url(#fq5nx8w76feep)" height="73.6094" id="OrderType" style="stroke:#A80036;stroke-width:1.5;" width="96" x="548" y="33"/><ellipse cx="563" cy="49" fill="#ADD1B2" rx="11" ry="11" style="stroke:#A80036;stroke-width:1.0;"/><path d="M567.1094,55 L559.3906,55 L559.3906,42.6094 L567.1094,42.6094 L567.1094,44.7656 L561.8438,44.7656 L561.8438,47.4375 L566.6094,47.4375 L566.6094,49.5938 L561.8438,49.5938 L561.8438,52.8438 L567.1094,52.8438 L567.1094,55 Z " fill="#000000"/><text fill="#000000" font-family="sans-serif" font-size="12" lengthAdjust="spacing" textLength="64" x="577" y="53.1543">OrderType</text><line style="stroke:#A80036;stroke-width:1.5;" x1="549" x2="643" y1="65" y2="65"/><ellipse cx="559" cy="76" rx="3" ry="3" style="stroke:#038048;stroke-width:1.0;fill:none;"/><text fill="#000000" font-family="sans-serif" font-size="11" lengthAdjust="spacing" textLength="51" x="568" y="79.2104">id: string</text><line style="stroke:#A80036;stroke-width:1.0;" x1="549" x2="643" y1="85.8047" y2="85.8047"/><text fill="#000000" font-family="sans-serif" font-size="11" lengthAdjust="spacing" textLength="65" x="554" y="100.0151">type: string</text><path d="M425.5,34.5 L425.5,105.0313 A0,0 0 0 0 425.5,105.0313 L512.5,105.0313 A0,0 0 0 0 512.5,105.0313 L512.5,74 L547.8169,70 L512.5,66 L512.5,44.5 L502.5,34.5 L425.5,34.5 A0,0 0 0 0 425.5,34.5 " fill="#FBFB77" filter="url(#fq5nx8w76feep)" style="stroke:#A80036;stroke-width:1.0;"/><path d="M502.5,34.5 L502.5,44.5 L512.5,44.5 L502.5,34.5 " fill="#FBFB77" style="stroke:#A80036;stroke-width:1.0;"/><text fill="#000000" font-family="sans-serif" font-size="13" lengthAdjust="spacing" textLength="45" x="431.5" y="51.5669">type は</text><text fill="#000000" font-family="sans-serif" font-size="13" lengthAdjust="spacing" textLength="66" x="431.5" y="66.6997">"持ち帰り",</text><text fill="#000000" font-family="sans-serif" font-size="13" lengthAdjust="spacing" textLength="40" x="431.5" y="81.8325">"店内",</text><text fill="#000000" font-family="sans-serif" font-size="13" lengthAdjust="spacing" textLength="66" x="431.5" y="96.9653">"配達" など</text><!--MD5=[86a83d8b82f7f19e59b94b9ead716b00]
class RegisterMenuInOrderType--><rect codeLine="62" fill="#FEFECE" filter="url(#fq5nx8w76feep)" height="86.4141" id="RegisterMenuInOrderType" style="stroke:#A80036;stroke-width:1.5;" width="193" x="475.5" y="173.5"/><ellipse cx="490.5" cy="189.5" fill="#ADD1B2" rx="11" ry="11" style="stroke:#A80036;stroke-width:1.0;"/><path d="M494.6094,195.5 L486.8906,195.5 L486.8906,183.1094 L494.6094,183.1094 L494.6094,185.2656 L489.3438,185.2656 L489.3438,187.9375 L494.1094,187.9375 L494.1094,190.0938 L489.3438,190.0938 L489.3438,193.3438 L494.6094,193.3438 L494.6094,195.5 Z " fill="#000000"/><text fill="#000000" font-family="sans-serif" font-size="12" lengthAdjust="spacing" textLength="161" x="504.5" y="193.6543">RegisterMenuInOrderType</text><line style="stroke:#A80036;stroke-width:1.5;" x1="476.5" x2="667.5" y1="205.5" y2="205.5"/><ellipse cx="486.5" cy="216.5" rx="3" ry="3" style="stroke:#038048;stroke-width:1.0;fill:none;"/><text fill="#000000" font-family="sans-serif" font-size="11" lengthAdjust="spacing" textLength="51" x="495.5" y="219.7104">id: string</text><line style="stroke:#A80036;stroke-width:1.0;" x1="476.5" x2="667.5" y1="226.3047" y2="226.3047"/><text fill="#000000" font-family="sans-serif" font-size="11" lengthAdjust="spacing" textLength="131" x="481.5" y="240.5151">orderTypeId: string [fk]</text><text fill="#000000" font-family="sans-serif" font-size="11" lengthAdjust="spacing" textLength="101" x="481.5" y="253.3198">menuId: string[fk]</text><!--MD5=[cf4d6237fcae255cd2e1656cf84a30e2]
class Order--><rect codeLine="79" fill="#FEFECE" filter="url(#fq5nx8w76feep)" height="99.2188" id="Order" style="stroke:#A80036;stroke-width:1.5;" width="153" x="977.5" y="167"/><ellipse cx="1032.25" cy="183" fill="#ADD1B2" rx="11" ry="11" style="stroke:#A80036;stroke-width:1.0;"/><path d="M1036.3594,189 L1028.6406,189 L1028.6406,176.6094 L1036.3594,176.6094 L1036.3594,178.7656 L1031.0938,178.7656 L1031.0938,181.4375 L1035.8594,181.4375 L1035.8594,183.5938 L1031.0938,183.5938 L1031.0938,186.8438 L1036.3594,186.8438 L1036.3594,189 Z " fill="#000000"/><text fill="#000000" font-family="sans-serif" font-size="12" lengthAdjust="spacing" textLength="35" x="1052.75" y="187.1543">Order</text><line style="stroke:#A80036;stroke-width:1.5;" x1="978.5" x2="1129.5" y1="199" y2="199"/><ellipse cx="988.5" cy="210" rx="3" ry="3" style="stroke:#038048;stroke-width:1.0;fill:none;"/><text fill="#000000" font-family="sans-serif" font-size="11" lengthAdjust="spacing" textLength="51" x="997.5" y="213.2104">id: string</text><line style="stroke:#A80036;stroke-width:1.0;" x1="978.5" x2="1129.5" y1="219.8047" y2="219.8047"/><text fill="#000000" font-family="sans-serif" font-size="11" lengthAdjust="spacing" textLength="99" x="983.5" y="234.0151">userId: string [fk]</text><text fill="#000000" font-family="sans-serif" font-size="11" lengthAdjust="spacing" textLength="141" x="983.5" y="246.8198">orderStatusId: string [fk]</text><text fill="#000000" font-family="sans-serif" font-size="11" lengthAdjust="spacing" textLength="89" x="983.5" y="259.6245">orderedAt: date</text><path d="M843.5,204 L843.5,229.1328 A0,0 0 0 0 843.5,229.1328 L942.5,229.1328 A0,0 0 0 0 942.5,229.1328 L942.5,222 L977.47,216.5 L942.5,214 L942.5,214 L932.5,204 L843.5,204 A0,0 0 0 0 843.5,204 " fill="#FBFB77" filter="url(#fq5nx8w76feep)" style="stroke:#A80036;stroke-width:1.0;"/><path d="M932.5,204 L932.5,214 L942.5,214 L932.5,204 " fill="#FBFB77" style="stroke:#A80036;stroke-width:1.0;"/><text fill="#000000" font-family="sans-serif" font-size="13" lengthAdjust="spacing" textLength="78" x="849.5" y="221.0669">注文のリスト</text><!--MD5=[a365ab721e21f8de8fc97216a4e49674]
class OrderMenu--><rect codeLine="90" fill="#FEFECE" filter="url(#fq5nx8w76feep)" height="112.0234" id="OrderMenu" style="stroke:#A80036;stroke-width:1.5;" width="117" x="832.5" y="326"/><ellipse cx="854.7" cy="342" fill="#ADD1B2" rx="11" ry="11" style="stroke:#A80036;stroke-width:1.0;"/><path d="M858.8094,348 L851.0906,348 L851.0906,335.6094 L858.8094,335.6094 L858.8094,337.7656 L853.5438,337.7656 L853.5438,340.4375 L858.3094,340.4375 L858.3094,342.5938 L853.5438,342.5938 L853.5438,345.8438 L858.8094,345.8438 L858.8094,348 Z " fill="#000000"/><text fill="#000000" font-family="sans-serif" font-size="12" lengthAdjust="spacing" textLength="69" x="870.3" y="346.1543">OrderMenu</text><line style="stroke:#A80036;stroke-width:1.5;" x1="833.5" x2="948.5" y1="358" y2="358"/><ellipse cx="843.5" cy="369" rx="3" ry="3" style="stroke:#038048;stroke-width:1.0;fill:none;"/><text fill="#000000" font-family="sans-serif" font-size="11" lengthAdjust="spacing" textLength="51" x="852.5" y="372.2104">id: string</text><line style="stroke:#A80036;stroke-width:1.0;" x1="833.5" x2="948.5" y1="378.8047" y2="378.8047"/><text fill="#000000" font-family="sans-serif" font-size="11" lengthAdjust="spacing" textLength="104" x="838.5" y="393.0151">orderId: string [fk]</text><text fill="#000000" font-family="sans-serif" font-size="11" lengthAdjust="spacing" textLength="105" x="838.5" y="405.8198">menuId: string [fk]</text><text fill="#000000" font-family="sans-serif" font-size="11" lengthAdjust="spacing" textLength="77" x="838.5" y="418.6245">sabi: boolean</text><text fill="#000000" font-family="sans-serif" font-size="11" lengthAdjust="spacing" textLength="97" x="838.5" y="431.4292">quantity: number</text><!--MD5=[f26d234c195c8b782b9388706769a420]
class ShariSize--><rect codeLine="99" fill="#FEFECE" filter="url(#fq5nx8w76feep)" height="73.6094" id="ShariSize" style="stroke:#A80036;stroke-width:1.5;" width="88" x="866" y="517"/><ellipse cx="881" cy="533" fill="#ADD1B2" rx="11" ry="11" style="stroke:#A80036;stroke-width:1.0;"/><path d="M885.1094,539 L877.3906,539 L877.3906,526.6094 L885.1094,526.6094 L885.1094,528.7656 L879.8438,528.7656 L879.8438,531.4375 L884.6094,531.4375 L884.6094,533.5938 L879.8438,533.5938 L879.8438,536.8438 L885.1094,536.8438 L885.1094,539 Z " fill="#000000"/><text fill="#000000" font-family="sans-serif" font-size="12" lengthAdjust="spacing" textLength="56" x="895" y="537.1543">ShariSize</text><line style="stroke:#A80036;stroke-width:1.5;" x1="867" x2="953" y1="549" y2="549"/><ellipse cx="877" cy="560" rx="3" ry="3" style="stroke:#038048;stroke-width:1.0;fill:none;"/><text fill="#000000" font-family="sans-serif" font-size="11" lengthAdjust="spacing" textLength="51" x="886" y="563.2104">id: string</text><line style="stroke:#A80036;stroke-width:1.0;" x1="867" x2="953" y1="569.8047" y2="569.8047"/><text fill="#000000" font-family="sans-serif" font-size="11" lengthAdjust="spacing" textLength="63" x="872" y="584.0151">size: string</text><path d="M832,706 L832,746.2656 A0,0 0 0 0 832,746.2656 L1018,746.2656 A0,0 0 0 0 1018,746.2656 L1018,716 L1008,706 L927.2477,706 L913.2548,591.3214 L919.2477,706 L832,706 A0,0 0 0 0 832,706 " fill="#FBFB77" filter="url(#fq5nx8w76feep)" style="stroke:#A80036;stroke-width:1.0;"/><path d="M1008,706 L1008,716 L1018,716 L1008,706 " fill="#FBFB77" style="stroke:#A80036;stroke-width:1.0;"/><text fill="#000000" font-family="sans-serif" font-size="13" lengthAdjust="spacing" textLength="165" x="838" y="723.0669">"small", "medium", "large"</text><text fill="#000000" font-family="sans-serif" font-size="13" lengthAdjust="spacing" textLength="52" x="838" y="738.1997">のどれか</text><!--MD5=[3fd616f346a44cd59a91eb10b19e157c]
class User--><rect codeLine="109" fill="#FEFECE" filter="url(#fq5nx8w76feep)" height="86.4141" id="User" style="stroke:#A80036;stroke-width:1.5;" width="138" x="985" y="339"/><ellipse cx="1035.25" cy="355" fill="#ADD1B2" rx="11" ry="11" style="stroke:#A80036;stroke-width:1.0;"/><path d="M1039.3594,361 L1031.6406,361 L1031.6406,348.6094 L1039.3594,348.6094 L1039.3594,350.7656 L1034.0938,350.7656 L1034.0938,353.4375 L1038.8594,353.4375 L1038.8594,355.5938 L1034.0938,355.5938 L1034.0938,358.8438 L1039.3594,358.8438 L1039.3594,361 Z " fill="#000000"/><text fill="#000000" font-family="sans-serif" font-size="12" lengthAdjust="spacing" textLength="29" x="1055.75" y="359.1543">User</text><line style="stroke:#A80036;stroke-width:1.5;" x1="986" x2="1122" y1="371" y2="371"/><ellipse cx="996" cy="382" rx="3" ry="3" style="stroke:#038048;stroke-width:1.0;fill:none;"/><text fill="#000000" font-family="sans-serif" font-size="11" lengthAdjust="spacing" textLength="51" x="1005" y="385.2104">id: string</text><line style="stroke:#A80036;stroke-width:1.0;" x1="986" x2="1122" y1="391.8047" y2="391.8047"/><text fill="#000000" font-family="sans-serif" font-size="11" lengthAdjust="spacing" textLength="73" x="991" y="406.0151">name: string</text><text fill="#000000" font-family="sans-serif" font-size="11" lengthAdjust="spacing" textLength="126" x="991" y="418.8198">phone_number: string</text><!--MD5=[de626c0cb0f072ae90ffb25031374c19]
class OrderStatus--><rect codeLine="116" fill="#FEFECE" filter="url(#fq5nx8w76feep)" height="73.6094" id="OrderStatus" style="stroke:#A80036;stroke-width:1.5;" width="108" x="1158" y="345"/><ellipse cx="1173" cy="361" fill="#ADD1B2" rx="11" ry="11" style="stroke:#A80036;stroke-width:1.0;"/><path d="M1177.1094,367 L1169.3906,367 L1169.3906,354.6094 L1177.1094,354.6094 L1177.1094,356.7656 L1171.8438,356.7656 L1171.8438,359.4375 L1176.6094,359.4375 L1176.6094,361.5938 L1171.8438,361.5938 L1171.8438,364.8438 L1177.1094,364.8438 L1177.1094,367 Z " fill="#000000"/><text fill="#000000" font-family="sans-serif" font-size="12" lengthAdjust="spacing" textLength="76" x="1187" y="365.1543">OrderStatus</text><line style="stroke:#A80036;stroke-width:1.5;" x1="1159" x2="1265" y1="377" y2="377"/><ellipse cx="1169" cy="388" rx="3" ry="3" style="stroke:#038048;stroke-width:1.0;fill:none;"/><text fill="#000000" font-family="sans-serif" font-size="11" lengthAdjust="spacing" textLength="51" x="1178" y="391.2104">id: string</text><line style="stroke:#A80036;stroke-width:1.0;" x1="1159" x2="1265" y1="397.8047" y2="397.8047"/><text fill="#000000" font-family="sans-serif" font-size="11" lengthAdjust="spacing" textLength="77" x="1164" y="412.0151">status: string</text><path d="M1126.5,526.5 L1126.5,581.8984 A0,0 0 0 0 1126.5,581.8984 L1265.5,581.8984 A0,0 0 0 0 1265.5,581.8984 L1265.5,536.5 L1255.5,526.5 L1202.5726,526.5 L1208.5282,419.3214 L1194.5726,526.5 L1126.5,526.5 A0,0 0 0 0 1126.5,526.5 " fill="#FBFB77" filter="url(#fq5nx8w76feep)" style="stroke:#A80036;stroke-width:1.0;"/><path d="M1255.5,526.5 L1255.5,536.5 L1265.5,536.5 L1255.5,526.5 " fill="#FBFB77" style="stroke:#A80036;stroke-width:1.0;"/><text fill="#000000" font-family="sans-serif" font-size="13" lengthAdjust="spacing" textLength="62" x="1132.5" y="543.5669">"注文受付"</text><text fill="#000000" font-family="sans-serif" font-size="13" lengthAdjust="spacing" textLength="75" x="1132.5" y="558.6997">"支払い済み"</text><text fill="#000000" font-family="sans-serif" font-size="13" lengthAdjust="spacing" textLength="118" x="1132.5" y="573.8325">"受け渡し済み" など</text><!--MD5=[c5c50656297be1246560d756e8993d29]
class SushiNeta--><rect codeLine="135" fill="#FEFECE" filter="url(#fq5nx8w76feep)" height="73.6094" id="SushiNeta" style="stroke:#A80036;stroke-width:1.5;" width="96" x="272" y="848"/><ellipse cx="287" cy="864" fill="#ADD1B2" rx="11" ry="11" style="stroke:#A80036;stroke-width:1.0;"/><path d="M291.1094,870 L283.3906,870 L283.3906,857.6094 L291.1094,857.6094 L291.1094,859.7656 L285.8438,859.7656 L285.8438,862.4375 L290.6094,862.4375 L290.6094,864.5938 L285.8438,864.5938 L285.8438,867.8438 L291.1094,867.8438 L291.1094,870 Z " fill="#000000"/><text fill="#000000" font-family="sans-serif" font-size="12" lengthAdjust="spacing" textLength="64" x="301" y="868.1543">SushiNeta</text><line style="stroke:#A80036;stroke-width:1.5;" x1="273" x2="367" y1="880" y2="880"/><ellipse cx="283" cy="891" rx="3" ry="3" style="stroke:#038048;stroke-width:1.0;fill:none;"/><text fill="#000000" font-family="sans-serif" font-size="11" lengthAdjust="spacing" textLength="51" x="292" y="894.2104">id: string</text><line style="stroke:#A80036;stroke-width:1.0;" x1="273" x2="367" y1="900.8047" y2="900.8047"/><text fill="#000000" font-family="sans-serif" font-size="11" lengthAdjust="spacing" textLength="73" x="278" y="915.0151">name: string</text><path d="M53,865 L53,905.2656 A0,0 0 0 0 53,905.2656 L237,905.2656 A0,0 0 0 0 237,905.2656 L237,889 L271.8574,885 L237,881 L237,875 L227,865 L53,865 A0,0 0 0 0 53,865 " fill="#FBFB77" filter="url(#fq5nx8w76feep)" style="stroke:#A80036;stroke-width:1.0;"/><path d="M227,865 L227,875 L237,875 L227,865 " fill="#FBFB77" style="stroke:#A80036;stroke-width:1.0;"/><text fill="#000000" font-family="sans-serif" font-size="13" lengthAdjust="spacing" textLength="163" x="59" y="882.0669">"玉子", "マグロ", "サーモン"</text><text fill="#000000" font-family="sans-serif" font-size="13" lengthAdjust="spacing" textLength="26" x="59" y="897.1997">など</text><!--MD5=[73091654239614f76de06dfa11cf5283]
class RegisterSushiNetaInMenu--><rect codeLine="145" fill="#FEFECE" filter="url(#fq5nx8w76feep)" height="99.2188" id="RegisterSushiNetaInMenu" style="stroke:#A80036;stroke-width:1.5;" width="193" x="223.5" y="676.5"/><ellipse cx="238.5" cy="692.5" fill="#ADD1B2" rx="11" ry="11" style="stroke:#A80036;stroke-width:1.0;"/><path d="M242.6094,698.5 L234.8906,698.5 L234.8906,686.1094 L242.6094,686.1094 L242.6094,688.2656 L237.3438,688.2656 L237.3438,690.9375 L242.1094,690.9375 L242.1094,693.0938 L237.3438,693.0938 L237.3438,696.3438 L242.6094,696.3438 L242.6094,698.5 Z " fill="#000000"/><text fill="#000000" font-family="sans-serif" font-size="12" lengthAdjust="spacing" textLength="161" x="252.5" y="696.6543">RegisterSushiNetaInMenu</text><line style="stroke:#A80036;stroke-width:1.5;" x1="224.5" x2="415.5" y1="708.5" y2="708.5"/><ellipse cx="234.5" cy="719.5" rx="3" ry="3" style="stroke:#038048;stroke-width:1.0;fill:none;"/><text fill="#000000" font-family="sans-serif" font-size="11" lengthAdjust="spacing" textLength="51" x="243.5" y="722.7104">id: string</text><line style="stroke:#A80036;stroke-width:1.0;" x1="224.5" x2="415.5" y1="729.3047" y2="729.3047"/><text fill="#000000" font-family="sans-serif" font-size="11" lengthAdjust="spacing" textLength="105" x="229.5" y="743.5151">menuId: string [fk]</text><text fill="#000000" font-family="sans-serif" font-size="11" lengthAdjust="spacing" textLength="130" x="229.5" y="756.3198">sushiNetaId: string [fk]</text><text fill="#000000" font-family="sans-serif" font-size="11" lengthAdjust="spacing" textLength="97" x="229.5" y="769.1245">quantity: number</text><path d="M24,706 L24,746.2656 A0,0 0 0 0 24,746.2656 L188,746.2656 A0,0 0 0 0 188,746.2656 L188,730 L223.3121,726 L188,722 L188,716 L178,706 L24,706 A0,0 0 0 0 24,706 " fill="#FBFB77" filter="url(#fq5nx8w76feep)" style="stroke:#A80036;stroke-width:1.0;"/><path d="M178,706 L178,716 L188,716 L178,706 " fill="#FBFB77" style="stroke:#A80036;stroke-width:1.0;"/><text fill="#000000" font-family="sans-serif" font-size="13" lengthAdjust="spacing" textLength="143" x="30" y="723.0669">あるメニューに含まれる</text><text fill="#000000" font-family="sans-serif" font-size="13" lengthAdjust="spacing" textLength="138" x="30" y="738.1997">寿司ネタ, その量を登録</text><!--MD5=[f0268dd29ee89052933f031546cb1cab]
class Menu--><rect codeLine="1" fill="#FEFECE" filter="url(#fq5nx8w76feep)" height="112.0234" id="Menu" style="stroke:#A80036;stroke-width:1.5;" width="157" x="440.5" y="498"/><ellipse cx="497.75" cy="514" fill="#ADD1B2" rx="11" ry="11" style="stroke:#A80036;stroke-width:1.0;"/><path d="M501.8594,520 L494.1406,520 L494.1406,507.6094 L501.8594,507.6094 L501.8594,509.7656 L496.5938,509.7656 L496.5938,512.4375 L501.3594,512.4375 L501.3594,514.5938 L496.5938,514.5938 L496.5938,517.8438 L501.8594,517.8438 L501.8594,520 Z " fill="#000000"/><text fill="#000000" font-family="sans-serif" font-size="12" lengthAdjust="spacing" textLength="34" x="518.25" y="518.1543">Menu</text><line style="stroke:#A80036;stroke-width:1.5;" x1="441.5" x2="596.5" y1="530" y2="530"/><ellipse cx="451.5" cy="541" rx="3" ry="3" style="stroke:#038048;stroke-width:1.0;fill:none;"/><text fill="#000000" font-family="sans-serif" font-size="11" lengthAdjust="spacing" textLength="51" x="460.5" y="544.2104">id: string</text><line style="stroke:#A80036;stroke-width:1.0;" x1="441.5" x2="596.5" y1="550.8047" y2="550.8047"/><text fill="#000000" font-family="sans-serif" font-size="11" lengthAdjust="spacing" textLength="73" x="446.5" y="565.0151">name: string</text><text fill="#000000" font-family="sans-serif" font-size="11" lengthAdjust="spacing" textLength="80" x="446.5" y="577.8198">price: number</text><text fill="#000000" font-family="sans-serif" font-size="11" lengthAdjust="spacing" textLength="131" x="446.5" y="590.6245">orderTypeId: string [fk]</text><text fill="#000000" font-family="sans-serif" font-size="11" lengthAdjust="spacing" textLength="145" x="446.5" y="603.4292">subCategoryId: string [fk]</text><path d="M632.5,534 L632.5,550 L597.877,554 L632.5,558 L632.5,574.2656 A0,0 0 0 0 632.5,574.2656 L815.5,574.2656 A0,0 0 0 0 815.5,574.2656 L815.5,544 L805.5,534 L632.5,534 A0,0 0 0 0 632.5,534 " fill="#FBFB77" filter="url(#fq5nx8w76feep)" style="stroke:#A80036;stroke-width:1.0;"/><path d="M805.5,534 L805.5,544 L815.5,544 L805.5,534 " fill="#FBFB77" style="stroke:#A80036;stroke-width:1.0;"/><text fill="#000000" font-family="sans-serif" font-size="13" lengthAdjust="spacing" textLength="123" x="638.5" y="551.0669">"はな", "海鮮ちらし",</text><text fill="#000000" font-family="sans-serif" font-size="13" lengthAdjust="spacing" textLength="162" x="638.5" y="566.1997">"玉子", "炙りえんがわ" など</text><!--MD5=[f726713feeca79b1a55c699a22921cdb]
class SalePrice--><rect codeLine="161" fill="#FEFECE" filter="url(#fq5nx8w76feep)" height="86.4141" id="SalePrice" style="stroke:#A80036;stroke-width:1.5;" width="92" x="486" y="842"/><ellipse cx="501.9" cy="858" fill="#ADD1B2" rx="11" ry="11" style="stroke:#A80036;stroke-width:1.0;"/><path d="M506.0094,864 L498.2906,864 L498.2906,851.6094 L506.0094,851.6094 L506.0094,853.7656 L500.7438,853.7656 L500.7438,856.4375 L505.5094,856.4375 L505.5094,858.5938 L500.7438,858.5938 L500.7438,861.8438 L506.0094,861.8438 L506.0094,864 Z " fill="#000000"/><text fill="#000000" font-family="sans-serif" font-size="12" lengthAdjust="spacing" textLength="58" x="516.1" y="862.1543">SalePrice</text><line style="stroke:#A80036;stroke-width:1.5;" x1="487" x2="577" y1="874" y2="874"/><ellipse cx="497" cy="885" rx="3" ry="3" style="stroke:#038048;stroke-width:1.0;fill:none;"/><text fill="#000000" font-family="sans-serif" font-size="11" lengthAdjust="spacing" textLength="51" x="506" y="888.2104">id: string</text><line style="stroke:#A80036;stroke-width:1.0;" x1="487" x2="577" y1="894.8047" y2="894.8047"/><text fill="#000000" font-family="sans-serif" font-size="11" lengthAdjust="spacing" textLength="80" x="492" y="909.0151">price: number</text><text fill="#000000" font-family="sans-serif" font-size="11" lengthAdjust="spacing" textLength="73" x="492" y="921.8198">name: string</text><!--MD5=[0de63f69ea1bd2bca8e5fe7c43f5185a]
class SetSalePriceToMenu--><rect codeLine="168" fill="#FEFECE" filter="url(#fq5nx8w76feep)" height="112.0234" id="SetSalePriceToMenu" style="stroke:#A80036;stroke-width:1.5;" width="160" x="452" y="670"/><ellipse cx="467" cy="686" fill="#ADD1B2" rx="11" ry="11" style="stroke:#A80036;stroke-width:1.0;"/><path d="M471.1094,692 L463.3906,692 L463.3906,679.6094 L471.1094,679.6094 L471.1094,681.7656 L465.8438,681.7656 L465.8438,684.4375 L470.6094,684.4375 L470.6094,686.5938 L465.8438,686.5938 L465.8438,689.8438 L471.1094,689.8438 L471.1094,692 Z " fill="#000000"/><text fill="#000000" font-family="sans-serif" font-size="12" lengthAdjust="spacing" textLength="128" x="481" y="690.1543">SetSalePriceToMenu</text><line style="stroke:#A80036;stroke-width:1.5;" x1="453" x2="611" y1="702" y2="702"/><ellipse cx="463" cy="713" rx="3" ry="3" style="stroke:#038048;stroke-width:1.0;fill:none;"/><text fill="#000000" font-family="sans-serif" font-size="11" lengthAdjust="spacing" textLength="51" x="472" y="716.2104">id: string</text><line style="stroke:#A80036;stroke-width:1.0;" x1="453" x2="611" y1="722.8047" y2="722.8047"/><text fill="#000000" font-family="sans-serif" font-size="11" lengthAdjust="spacing" textLength="105" x="458" y="737.0151">menuId: string [fk]</text><text fill="#000000" font-family="sans-serif" font-size="11" lengthAdjust="spacing" textLength="125" x="458" y="749.8198">salePriceId: string [fk]</text><text fill="#000000" font-family="sans-serif" font-size="11" lengthAdjust="spacing" textLength="71" x="458" y="762.6245">startAt: date</text><text fill="#000000" font-family="sans-serif" font-size="11" lengthAdjust="spacing" textLength="62" x="458" y="775.4292">entAt: date</text><path d="M647,713.5 L647,722 L612.1406,726 L647,730 L647,738.6328 A0,0 0 0 0 647,738.6328 L785,738.6328 A0,0 0 0 0 785,738.6328 L785,723.5 L775,713.5 L647,713.5 A0,0 0 0 0 647,713.5 " fill="#FBFB77" filter="url(#fq5nx8w76feep)" style="stroke:#A80036;stroke-width:1.0;"/><path d="M775,713.5 L775,723.5 L785,723.5 L775,713.5 " fill="#FBFB77" style="stroke:#A80036;stroke-width:1.0;"/><text fill="#000000" font-family="sans-serif" font-size="13" lengthAdjust="spacing" textLength="117" x="653" y="730.5669">セールの期間を設定</text><!--MD5=[1f47e81ccb398e19b7e93a3419bd4406]
link OrderType to RegisterMenuInOrderType--><path codeLine="69" d="M588.5321,115.5853 C585.9663,131.2474 583.0764,148.8875 580.439,164.9872 " fill="none" id="OrderType-RegisterMenuInOrderType" style="stroke:#A80036;stroke-width:1.0;"/><line style="stroke:#A80036;stroke-width:1.0;" x1="580.3792" x2="585.0069" y1="165.3524" y2="174.2173"/><line style="stroke:#A80036;stroke-width:1.0;" x1="580.3792" x2="573.1647" y1="165.3524" y2="172.2771"/><line style="stroke:#A80036;stroke-width:1.0;" x1="580.3792" x2="579.0858" y1="165.3524" y2="173.2472"/><ellipse cx="581.3493" cy="159.4314" rx="4" ry="4" style="stroke:#A80036;stroke-width:1.0;fill:none;"/><line style="stroke:#A80036;stroke-width:1.0;fill:none;" x1="585.2876" x2="593.1824" y1="110.6479" y2="111.9413"/><line style="stroke:#A80036;stroke-width:1.0;fill:none;" x1="584.8026" x2="592.6973" y1="113.6084" y2="114.9018"/><line style="stroke:#A80036;stroke-width:1.0;fill:none;" x1="588.5883" x2="589.8817" y1="115.2419" y2="107.3472"/><!--MD5=[e63b882337a0412cd904c3a1e35c96c2]
link RegisterMenuInOrderType to Menu--><path codeLine="70" d="M594.7638,267.2665 C611.9708,312.932 629.569,381.3499 610,438 C603.4336,457.0089 592.326,475.2764 580.0831,491.4671 " fill="none" id="RegisterMenuInOrderType-Menu" style="stroke:#A80036;stroke-width:1.0;"/><line style="stroke:#A80036;stroke-width:1.0;" x1="580.7688" x2="574.4542" y1="497.1003" y2="492.1885"/><line style="stroke:#A80036;stroke-width:1.0;" x1="582.6108" x2="576.2962" y1="494.7324" y2="489.8205"/><line style="stroke:#A80036;stroke-width:1.0;" x1="580.0675" x2="575.1556" y1="491.4871" y2="497.8017"/><line style="stroke:#A80036;stroke-width:1.0;" x1="594.6753" x2="586.1929" y1="267.0373" y2="261.7411"/><line style="stroke:#A80036;stroke-width:1.0;" x1="594.6753" x2="597.3845" y1="267.0373" y2="257.4113"/><line style="stroke:#A80036;stroke-width:1.0;" x1="594.6753" x2="591.7887" y1="267.0373" y2="259.5762"/><ellipse cx="596.8402" cy="272.6331" rx="4" ry="4" style="stroke:#A80036;stroke-width:1.0;fill:none;"/><!--MD5=[e64715288975d269d78d4bd79c7422d5]
link MenuCategory to MenuSubCategory--><path codeLine="71" d="M336.7791,115.5853 C339.4518,131.2474 342.462,148.8875 345.2094,164.9872 " fill="none" id="MenuCategory-MenuSubCategory" style="stroke:#A80036;stroke-width:1.0;"/><line style="stroke:#A80036;stroke-width:1.0;" x1="345.2733" x2="352.5335" y1="165.3612" y2="172.2379"/><line style="stroke:#A80036;stroke-width:1.0;" x1="345.2733" x2="340.7045" y1="165.3612" y2="174.2565"/><line style="stroke:#A80036;stroke-width:1.0;" x1="345.2733" x2="346.619" y1="165.3612" y2="173.2472"/><ellipse cx="344.264" cy="159.4467" rx="4" ry="4" style="stroke:#A80036;stroke-width:1.0;fill:none;"/><line style="stroke:#A80036;stroke-width:1.0;fill:none;" x1="332.1031" x2="339.9891" y1="111.9631" y2="110.6173"/><line style="stroke:#A80036;stroke-width:1.0;fill:none;" x1="332.6077" x2="340.4937" y1="114.9203" y2="113.5746"/><line style="stroke:#A80036;stroke-width:1.0;fill:none;" x1="336.7189" x2="335.3732" y1="115.2332" y2="107.3472"/><!--MD5=[6eb9424e0b400085027e88e7bd482f02]
link MenuSubCategory to RegisterMenuInMenuSubCategory--><path codeLine="72" d="M389.1859,266.2715 C403.9398,287.1413 421.0592,311.3573 435.8133,332.2273 " fill="none" id="MenuSubCategory-RegisterMenuInMenuSubCategory" style="stroke:#A80036;stroke-width:1.0;"/><line style="stroke:#A80036;stroke-width:1.0;" x1="435.8963" x2="445.4137" y1="332.3448" y2="335.4136"/><line style="stroke:#A80036;stroke-width:1.0;" x1="435.8963" x2="435.6151" y1="332.3448" y2="342.3408"/><line style="stroke:#A80036;stroke-width:1.0;" x1="435.8963" x2="440.5144" y1="332.3448" y2="338.8772"/><ellipse cx="432.4326" cy="327.4454" rx="4" ry="4" style="stroke:#A80036;stroke-width:1.0;fill:none;"/><line style="stroke:#A80036;stroke-width:1.0;fill:none;" x1="383.4777" x2="390.0102" y1="265.1264" y2="260.5083"/><line style="stroke:#A80036;stroke-width:1.0;fill:none;" x1="385.2095" x2="391.742" y1="267.5761" y2="262.958"/><line style="stroke:#A80036;stroke-width:1.0;fill:none;" x1="389.053" x2="384.4349" y1="266.0836" y2="259.5511"/><!--MD5=[22f9da323f5b8db2e9274b6e8169aaa6]
link RegisterMenuInMenuSubCategory to Menu--><path codeLine="73" d="M485.3236,433.3264 C490.2912,451.1269 495.9231,471.3079 501.1401,490.0019 " fill="none" id="RegisterMenuInMenuSubCategory-Menu" style="stroke:#A80036;stroke-width:1.0;"/><line style="stroke:#A80036;stroke-width:1.0;" x1="506.1249" x2="498.4193" y1="492.9833" y2="495.1337"/><line style="stroke:#A80036;stroke-width:1.0;" x1="505.3185" x2="497.6129" y1="490.0937" y2="492.2441"/><line style="stroke:#A80036;stroke-width:1.0;" x1="501.1969" x2="503.3473" y1="490.2057" y2="497.9113"/><line style="stroke:#A80036;stroke-width:1.0;" x1="485.2628" x2="477.3332" y1="433.1085" y2="427.0157"/><line style="stroke:#A80036;stroke-width:1.0;" x1="485.2628" x2="488.8916" y1="433.1085" y2="423.7901"/><line style="stroke:#A80036;stroke-width:1.0;" x1="485.2628" x2="483.1124" y1="433.1085" y2="425.4029"/><ellipse cx="486.8756" cy="438.8876" rx="4" ry="4" style="stroke:#A80036;stroke-width:1.0;fill:none;"/><!--MD5=[551ac56825aa25e90762dd9c2e729255]
link Order to OrderMenu--><path codeLine="127" d="M999.3882,271.9494 C984.2109,287.3595 967.6326,304.1921 952.109,319.9538 " fill="none" id="Order-OrderMenu" style="stroke:#A80036;stroke-width:1.0;"/><line style="stroke:#A80036;stroke-width:1.0;" x1="952.0556" x2="950.7168" y1="320.0078" y2="329.9178"/><line style="stroke:#A80036;stroke-width:1.0;" x1="952.0556" x2="942.1672" y1="320.0078" y2="321.4974"/><line style="stroke:#A80036;stroke-width:1.0;" x1="952.0556" x2="946.442" y1="320.0078" y2="325.7076"/><ellipse cx="956.2658" cy="315.733" rx="4" ry="4" style="stroke:#A80036;stroke-width:1.0;fill:none;"/><line style="stroke:#A80036;stroke-width:1.0;fill:none;" x1="999.4379" x2="1005.1377" y1="266.1986" y2="271.8122"/><line style="stroke:#A80036;stroke-width:1.0;fill:none;" x1="997.3328" x2="1003.0326" y1="268.336" y2="273.9496"/><line style="stroke:#A80036;stroke-width:1.0;fill:none;" x1="999.481" x2="1005.0946" y1="271.8553" y2="266.1555"/><!--MD5=[6f8b731c678b15fcafa87aa391fc1121]
link Order to User--><path codeLine="128" d="M1054,274.1642 C1054,292.585 1054,312.8376 1054,330.7688 " fill="none" id="Order-User" style="stroke:#A80036;stroke-width:1.0;"/><line style="stroke:#A80036;stroke-width:1.0;" x1="1058" x2="1050" y1="334.8292" y2="334.8292"/><line style="stroke:#A80036;stroke-width:1.0;" x1="1058" x2="1050" y1="331.8292" y2="331.8292"/><line style="stroke:#A80036;stroke-width:1.0;" x1="1054" x2="1054" y1="330.8292" y2="338.8292"/><line style="stroke:#A80036;stroke-width:1.0;" x1="1054" x2="1048" y1="274.1555" y2="266.1555"/><line style="stroke:#A80036;stroke-width:1.0;" x1="1054" x2="1060" y1="274.1555" y2="266.1555"/><line style="stroke:#A80036;stroke-width:1.0;" x1="1054" x2="1054" y1="274.1555" y2="266.1555"/><ellipse cx="1054" cy="280.1555" rx="4" ry="4" style="stroke:#A80036;stroke-width:1.0;fill:none;"/><!--MD5=[d7a12ed011a57068e70e07d9626e1fb6]
link Order to OrderStatus--><path codeLine="129" d="M1107.1314,272.1534 C1127.8996,293.9075 1151.3491,318.4701 1170.799,338.8433 " fill="none" id="Order-OrderStatus" style="stroke:#A80036;stroke-width:1.0;"/><line style="stroke:#A80036;stroke-width:1.0;" x1="1176.5667" x2="1170.7803" y1="339.0921" y2="344.6163"/><line style="stroke:#A80036;stroke-width:1.0;" x1="1174.4952" x2="1168.7087" y1="336.9221" y2="342.4463"/><line style="stroke:#A80036;stroke-width:1.0;" x1="1170.9114" x2="1176.4356" y1="338.9609" y2="344.7474"/><line style="stroke:#A80036;stroke-width:1.0;" x1="1106.9295" x2="1097.0654" y1="271.9419" y2="270.2987"/><line style="stroke:#A80036;stroke-width:1.0;" x1="1106.9295" x2="1105.745" y1="271.9419" y2="262.0123"/><line style="stroke:#A80036;stroke-width:1.0;" x1="1106.9295" x2="1101.4052" y1="271.9419" y2="266.1555"/><ellipse cx="1111.0727" cy="276.2817" rx="4" ry="4" style="stroke:#A80036;stroke-width:1.0;fill:none;"/><!--MD5=[09a627d2780fdb8707f773e65b357a01]
link OrderMenu to Menu--><path codeLine="130" d="M824.9341,406.9624 C768.3337,429.0087 685.0982,463.0099 615,498 C611.6174,499.6885 608.1902,501.4465 604.745,503.2536 " fill="none" id="OrderMenu-Menu" style="stroke:#A80036;stroke-width:1.0;"/><line style="stroke:#A80036;stroke-width:1.0;" x1="603.0669" x2="599.309" y1="508.6775" y2="501.615"/><line style="stroke:#A80036;stroke-width:1.0;" x1="605.7153" x2="601.9574" y1="507.2682" y2="500.2058"/><line style="stroke:#A80036;stroke-width:1.0;" x1="604.7191" x2="597.6567" y1="503.2673" y2="507.0252"/><line style="stroke:#A80036;stroke-width:1.0;" x1="824.9356" x2="830.2213" y1="406.9619" y2="398.473"/><line style="stroke:#A80036;stroke-width:1.0;" x1="824.9356" x2="834.5649" y1="406.9619" y2="409.6594"/><line style="stroke:#A80036;stroke-width:1.0;" x1="824.9356" x2="832.3931" y1="406.9619" y2="404.0662"/><ellipse cx="819.3424" cy="409.1337" rx="4" ry="4" style="stroke:#A80036;stroke-width:1.0;fill:none;"/><!--MD5=[6df0da86f0ada7e74bbe8ff3b89bb734]
link OrderMenu to ShariSize--><path codeLine="131" d="M898.1011,446.284 C900.4004,467.0985 902.9003,489.7289 905.0125,508.8499 " fill="none" id="OrderMenu-ShariSize" style="stroke:#A80036;stroke-width:1.0;"/><line style="stroke:#A80036;stroke-width:1.0;" x1="909.4289" x2="901.4773" y1="512.3993" y2="513.2777"/><line style="stroke:#A80036;stroke-width:1.0;" x1="909.0995" x2="901.1479" y1="509.4174" y2="510.2958"/><line style="stroke:#A80036;stroke-width:1.0;" x1="905.0139" x2="905.8923" y1="508.8627" y2="516.8143"/><line style="stroke:#A80036;stroke-width:1.0;" x1="898.0997" x2="891.2576" y1="446.2708" y2="438.978"/><line style="stroke:#A80036;stroke-width:1.0;" x1="898.0997" x2="903.185" y1="446.2708" y2="437.6604"/><line style="stroke:#A80036;stroke-width:1.0;" x1="898.0997" x2="897.2213" y1="446.2708" y2="438.3192"/><ellipse cx="898.7586" cy="452.2345" rx="4" ry="4" style="stroke:#A80036;stroke-width:1.0;fill:none;"/><!--MD5=[6211876ce405877f129187e1f7c3b748]
link Menu to RegisterSushiNetaInMenu--><path codeLine="157" d="M447.9686,615.3939 C426.9948,633.5221 404.1782,653.243 383.6969,670.9454 " fill="none" id="Menu-RegisterSushiNetaInMenu" style="stroke:#A80036;stroke-width:1.0;"/><line style="stroke:#A80036;stroke-width:1.0;" x1="383.4729" x2="381.3438" y1="671.1391" y2="680.9098"/><line style="stroke:#A80036;stroke-width:1.0;" x1="383.4729" x2="373.4968" y1="671.1391" y2="671.831"/><line style="stroke:#A80036;stroke-width:1.0;" x1="383.4729" x2="377.4203" y1="671.1391" y2="676.3704"/><ellipse cx="388.0123" cy="667.2156" rx="4" ry="4" style="stroke:#A80036;stroke-width:1.0;fill:none;"/><line style="stroke:#A80036;stroke-width:1.0;fill:none;" x1="448.4734" x2="453.7047" y1="609.6706" y2="615.7231"/><line style="stroke:#A80036;stroke-width:1.0;fill:none;" x1="446.2037" x2="451.4349" y1="611.6323" y2="617.6849"/><line style="stroke:#A80036;stroke-width:1.0;fill:none;" x1="448.0627" x2="454.1153" y1="615.3125" y2="610.0812"/><!--MD5=[f4ae530af5a7ec094a2fa022231aa97f]
link RegisterSushiNetaInMenu to SushiNeta--><path codeLine="158" d="M320,783.9342 C320,802.2897 320,822.3045 320,839.644 " fill="none" id="RegisterSushiNetaInMenu-SushiNeta" style="stroke:#A80036;stroke-width:1.0;"/><line style="stroke:#A80036;stroke-width:1.0;" x1="324" x2="316" y1="843.9222" y2="843.9222"/><line style="stroke:#A80036;stroke-width:1.0;" x1="324" x2="316" y1="840.9222" y2="840.9222"/><line style="stroke:#A80036;stroke-width:1.0;" x1="320" x2="320" y1="839.9222" y2="847.9222"/><line style="stroke:#A80036;stroke-width:1.0;" x1="320" x2="314" y1="783.8723" y2="775.8723"/><line style="stroke:#A80036;stroke-width:1.0;" x1="320" x2="326" y1="783.8723" y2="775.8723"/><line style="stroke:#A80036;stroke-width:1.0;" x1="320" x2="320" y1="783.8723" y2="775.8723"/><ellipse cx="320" cy="789.8723" rx="4" ry="4" style="stroke:#A80036;stroke-width:1.0;fill:none;"/><!--MD5=[39cdcb98a29dbe9566cce1de9a871ee9]
link Menu to SetSalePriceToMenu--><path codeLine="178" d="M523.8749,618.4988 C524.9415,632.61 526.0704,647.5464 527.1365,661.6517 " fill="none" id="Menu-SetSalePriceToMenu" style="stroke:#A80036;stroke-width:1.0;"/><line style="stroke:#A80036;stroke-width:1.0;" x1="527.153" x2="533.7389" y1="661.8709" y2="669.3959"/><line style="stroke:#A80036;stroke-width:1.0;" x1="527.153" x2="521.7731" y1="661.8709" y2="670.3003"/><line style="stroke:#A80036;stroke-width:1.0;" x1="527.153" x2="527.756" y1="661.8709" y2="669.8481"/><ellipse cx="526.7008" cy="655.8879" rx="4" ry="4" style="stroke:#A80036;stroke-width:1.0;fill:none;"/><line style="stroke:#A80036;stroke-width:1.0;fill:none;" x1="519.5696" x2="527.5468" y1="614.6093" y2="614.0063"/><line style="stroke:#A80036;stroke-width:1.0;fill:none;" x1="519.7957" x2="527.773" y1="617.6008" y2="616.9978"/><line style="stroke:#A80036;stroke-width:1.0;fill:none;" x1="523.8597" x2="523.2567" y1="618.2964" y2="610.3192"/><!--MD5=[2e0b0ef8ba366fd612a63ace08a705d1]
link SetSalePriceToMenu to SalePrice--><path codeLine="179" d="M532,790.4653 C532,804.808 532,819.8284 532,833.566 " fill="none" id="SetSalePriceToMenu-SalePrice" style="stroke:#A80036;stroke-width:1.0;"/><line style="stroke:#A80036;stroke-width:1.0;" x1="536" x2="528" y1="837.9363" y2="837.9363"/><line style="stroke:#A80036;stroke-width:1.0;" x1="536" x2="528" y1="834.9363" y2="834.9363"/><line style="stroke:#A80036;stroke-width:1.0;" x1="532" x2="532" y1="833.9363" y2="841.9363"/><line style="stroke:#A80036;stroke-width:1.0;" x1="532" x2="526" y1="790.0575" y2="782.0575"/><line style="stroke:#A80036;stroke-width:1.0;" x1="532" x2="538" y1="790.0575" y2="782.0575"/><line style="stroke:#A80036;stroke-width:1.0;" x1="532" x2="532" y1="790.0575" y2="782.0575"/><ellipse cx="532" cy="796.0575" rx="4" ry="4" style="stroke:#A80036;stroke-width:1.0;fill:none;"/><!--MD5=[b6bf93db98445f50d4a69cba84063a71]
@startuml
Entity Menu {
  + id: string
  - -
  name: string
  price: number
  orderTypeId: string [fk]
  subCategoryId: string [fk]
}
note right
"はな", "海鮮ちらし",
"玉子", "炙りえんがわ" など
end note

package メニュー表示 {
  Entity MenuCategory {
    + id: string
    - -
    name: string
  }
  note left
  "セットメニュー"
  "お好みすし" など
  end note

  Entity MenuSubCategory {
    + id: string
    - -
    name: string
    parentCategoryId: string [fk]
  }
  note left
  "盛り込み", "にぎり"
  "一皿100円(税別)" など

  end note

  Entity RegisterMenuInMenuSubCategory {
    + id: string
    - -
    menuId: string [fk]
    subCategoryId: string [fk]
  }
  note left
  あるメニューを
  "おすすめ" と "一皿X円"
  に重複して表示したい場合がありそう
  なので多対多とした。
  end note

  Entity OrderType {
    + id: string
    - -
    type: string
  }
  note left
  type は
  "持ち帰り",
  "店内",
  "配達" など
  end note

  Entity RegisterMenuInOrderType {
    + id: string
    - -
    orderTypeId: string [fk]
    menuId: string[fk]
  }

  OrderType ||- -o{ RegisterMenuInOrderType
  RegisterMenuInOrderType }o- -|| Menu
  MenuCategory ||- -o{ MenuSubCategory
  MenuSubCategory ||- -o{ RegisterMenuInMenuSubCategory
  RegisterMenuInMenuSubCategory }o- -|| Menu
}



package 注文管理 {
  Entity Order {
    + id: string
    - -
    userId: string [fk]
    orderStatusId: string [fk]
    orderedAt: date
  }
  note left
  注文のリスト
  end note

  Entity OrderMenu {
    + id: string
    - -
    orderId: string [fk]
    menuId: string [fk]
    sabi: boolean
    quantity: number
  }

  Entity ShariSize {
    + id: string
    - -
    size: string
  }
  note bottom
  "small", "medium", "large"
  のどれか
  end note

  Entity User {
    + id: string
    - -
    name: string
    phone_number: string
  }

  Entity OrderStatus {
    + id: string
    - -
    status: string
  }
  note bottom
  "注文受付"
  "支払い済み"
  "受け渡し済み" など
  end note

  Order ||- -o{ OrderMenu
  Order }o- -|| User
  Order }o- -|| OrderStatus
  OrderMenu }o- -|| Menu
  OrderMenu }o- -|| ShariSize
}

package 寿司ネタ集計 {
  Entity SushiNeta {
    + id: string
    - -
    name: string
  }
  note left
  "玉子", "マグロ", "サーモン"
  など
  end note

  Entity RegisterSushiNetaInMenu {
    + id: string
    - -
    menuId: string [fk]
    sushiNetaId: string [fk]
    quantity: number
  }
  note left
  あるメニューに含まれる
  寿司ネタ, その量を登録
  end note

  Menu ||- -o{ RegisterSushiNetaInMenu
  RegisterSushiNetaInMenu }o- -|| SushiNeta
}

Entity SalePrice {
  + id: string
  - -
  price: number
  name: string
}

Entity SetSalePriceToMenu {
  + id: string
  - -
  menuId: string [fk]
  salePriceId: string [fk]
  startAt: date
  entAt: date
}
note right: セールの期間を設定

Menu ||- -o{ SetSalePriceToMenu
SetSalePriceToMenu }o- -|| SalePrice
@enduml

PlantUML version 1.2021.5(Sun Apr 25 11:20:28 UTC 2021)
(GPL source distribution)
Java Runtime: OpenJDK Runtime Environment
JVM: OpenJDK 64-Bit Server VM
Default Encoding: UTF-8
Language: en
Country: null
--></g></svg>