<svg xmlns="http://www.w3.org/2000/svg" xlink="http://www.w3.org/1999/xlink" contentscripttype="application/ecmascript" contentstyletype="text/css" height="401px" preserveAspectRatio="none" style="width:287px;height:401px;background:#FFFFFF;" version="1.1" viewBox="0 0 287 401" width="287px" zoomAndPan="magnify"><defs><filter height="300%" id="f1cudhm3powdeg" width="300%" x="-1" y="-1"><feGaussianBlur result="blurOut" stdDeviation="2.0"></feGaussianBlur><feColorMatrix in="blurOut" result="blurOut2" type="matrix" values="0 0 0 0 0 0 0 0 0 0 0 0 0 0 0 0 0 0 .4 0"></feColorMatrix><feOffset dx="4.0" dy="4.0" in="blurOut2" result="blurOut3"></feOffset><feBlend in="SourceGraphic" in2="blurOut3" mode="normal"></feBlend></filter></defs><g><!--MD5=[b34797a66dc35cbf1d65f7e3ca75530e]
class Task--><rect codeline="1" fill="#FEFECE" filter="url(#f1cudhm3powdeg)" height="86.8652" id="Task" style="stroke:#A80036;stroke-width:1.5;" width="111" x="20" y="7"></rect><ellipse cx="57.95" cy="23" fill="#ADD1B2" rx="11" ry="11" style="stroke:#A80036;stroke-width:1.0;"></ellipse><path d="M61.5643,29.5 L53.8445,29.5 L53.8445,17.1069 L61.5643,17.1069 L61.5643,19.2651 L56.2933,19.2651 L56.2933,21.938 L61.0662,21.938 L61.0662,24.0962 L56.2933,24.0962 L56.2933,27.3418 L61.5643,27.3418 Z " fill="#000000"></path><text fill="#000000" font-family="sans-serif" font-size="12" lengthAdjust="spacing" textLength="28" x="77.05" y="27.5352">Task</text><line style="stroke:#A80036;stroke-width:1.5;" x1="21" x2="130" y1="39" y2="39"></line><ellipse cx="31" cy="50" rx="3" ry="3" style="stroke:#038048;stroke-width:1.0;fill:none;"></ellipse><text fill="#000000" font-family="sans-serif" font-size="11" lengthAdjust="spacing" textLength="48" x="40" y="53.6348">id: string</text><line style="stroke:#A80036;stroke-width:1.0;" x1="21" x2="130" y1="59.9551" y2="59.9551"></line><text fill="#000000" font-family="sans-serif" font-size="11" lengthAdjust="spacing" textLength="58" x="26" y="74.5898">title: string</text><text fill="#000000" font-family="sans-serif" font-size="11" lengthAdjust="spacing" textLength="99" x="26" y="87.5449">description: string</text><!--MD5=[3fd616f346a44cd59a91eb10b19e157c]
class User--><rect codeline="8" fill="#FEFECE" filter="url(#f1cudhm3powdeg)" height="73.9102" id="User" style="stroke:#A80036;stroke-width:1.5;" width="79" x="36" y="314"></rect><ellipse cx="60.45" cy="330" fill="#ADD1B2" rx="11" ry="11" style="stroke:#A80036;stroke-width:1.0;"></ellipse><path d="M64.0643,336.5 L56.3445,336.5 L56.3445,324.1069 L64.0643,324.1069 L64.0643,326.2651 L58.7933,326.2651 L58.7933,328.938 L63.5662,328.938 L63.5662,331.0962 L58.7933,331.0962 L58.7933,334.3418 L64.0643,334.3418 Z " fill="#000000"></path><text fill="#000000" font-family="sans-serif" font-size="12" lengthAdjust="spacing" textLength="26" x="76.55" y="334.5352">User</text><line style="stroke:#A80036;stroke-width:1.5;" x1="37" x2="114" y1="346" y2="346"></line><ellipse cx="47" cy="357" rx="3" ry="3" style="stroke:#038048;stroke-width:1.0;fill:none;"></ellipse><text fill="#000000" font-family="sans-serif" font-size="11" lengthAdjust="spacing" textLength="48" x="56" y="360.6348">id: string</text><line style="stroke:#A80036;stroke-width:1.0;" x1="37" x2="114" y1="366.9551" y2="366.9551"></line><text fill="#000000" font-family="sans-serif" font-size="11" lengthAdjust="spacing" textLength="67" x="42" y="381.5898">name: string</text><!--MD5=[007b513da6771087a86fbb3bd355c48d]
class TaskStatus--><rect codeline="14" fill="#FEFECE" filter="url(#f1cudhm3powdeg)" height="73.9102" id="TaskStatus" style="stroke:#A80036;stroke-width:1.5;" width="94" x="179.5" y="167"></rect><ellipse cx="194.5" cy="183" fill="#ADD1B2" rx="11" ry="11" style="stroke:#A80036;stroke-width:1.0;"></ellipse><path d="M198.1143,189.5 L190.3945,189.5 L190.3945,177.1069 L198.1143,177.1069 L198.1143,179.2651 L192.8433,179.2651 L192.8433,181.938 L197.6162,181.938 L197.6162,184.0962 L192.8433,184.0962 L192.8433,187.3418 L198.1143,187.3418 Z " fill="#000000"></path><text fill="#000000" font-family="sans-serif" font-size="12" lengthAdjust="spacing" textLength="62" x="208.5" y="187.5352">TaskStatus</text><line style="stroke:#A80036;stroke-width:1.5;" x1="180.5" x2="272.5" y1="199" y2="199"></line><ellipse cx="190.5" cy="210" rx="3" ry="3" style="stroke:#038048;stroke-width:1.0;fill:none;"></ellipse><text fill="#000000" font-family="sans-serif" font-size="11" lengthAdjust="spacing" textLength="48" x="199.5" y="213.6348">id: string</text><line style="stroke:#A80036;stroke-width:1.0;" x1="180.5" x2="272.5" y1="219.9551" y2="219.9551"></line><text fill="#000000" font-family="sans-serif" font-size="11" lengthAdjust="spacing" textLength="67" x="185.5" y="234.5898">name: string</text><!--MD5=[249cbae071fadacce1ab1ebf320aa267]
class ChangeTaskStatus--><rect codeline="20" fill="#FEFECE" filter="url(#f1cudhm3powdeg)" height="99.8203" id="ChangeTaskStatus" style="stroke:#A80036;stroke-width:1.5;" width="137" x="7" y="154"></rect><ellipse cx="22" cy="170" fill="#ADD1B2" rx="11" ry="11" style="stroke:#A80036;stroke-width:1.0;"></ellipse><path d="M25.6143,176.5 L17.8945,176.5 L17.8945,164.1069 L25.6143,164.1069 L25.6143,166.2651 L20.3433,166.2651 L20.3433,168.938 L25.1162,168.938 L25.1162,171.0962 L20.3433,171.0962 L20.3433,174.3418 L25.6143,174.3418 Z " fill="#000000"></path><text fill="#000000" font-family="sans-serif" font-size="12" lengthAdjust="spacing" textLength="105" x="36" y="174.5352">ChangeTaskStatus</text><line style="stroke:#A80036;stroke-width:1.5;" x1="8" x2="143" y1="186" y2="186"></line><ellipse cx="18" cy="197" rx="3" ry="3" style="stroke:#038048;stroke-width:1.0;fill:none;"></ellipse><text fill="#000000" font-family="sans-serif" font-size="11" lengthAdjust="spacing" textLength="48" x="27" y="200.6348">id: string</text><line style="stroke:#A80036;stroke-width:1.0;" x1="8" x2="143" y1="206.9551" y2="206.9551"></line><text fill="#000000" font-family="sans-serif" font-size="11" lengthAdjust="spacing" textLength="70" x="13" y="221.5898">taskId: string</text><text fill="#000000" font-family="sans-serif" font-size="11" lengthAdjust="spacing" textLength="103" x="13" y="234.5449">taskStatusId: string</text><text fill="#000000" font-family="sans-serif" font-size="11" lengthAdjust="spacing" textLength="72" x="13" y="247.5">userId: string</text><!--MD5=[f276286a1bf07b1b36e6ec52257a876f]
link Task to ChangeTaskStatus--><path codeline="28" d="M75.5,102.11 C75.5,116.02 75.5,131.21 75.5,145.48 " fill="none" id="Task-ChangeTaskStatus" style="stroke:#A80036;stroke-width:1.0;"></path><line style="stroke:#A80036;stroke-width:1.0;" x1="75.5" x2="81.5" y1="145.76" y2="153.76"></line><line style="stroke:#A80036;stroke-width:1.0;" x1="75.5" x2="69.5" y1="145.76" y2="153.76"></line><line style="stroke:#A80036;stroke-width:1.0;" x1="75.5" x2="75.5" y1="145.76" y2="153.76"></line><ellipse cx="75.5" cy="139.76" rx="4" ry="4" style="stroke:#A80036;stroke-width:1.0;fill:none;"></ellipse><line style="stroke:#A80036;stroke-width:1.0;fill:none;" x1="71.5" x2="79.5" y1="98.1" y2="98.1"></line><line style="stroke:#A80036;stroke-width:1.0;fill:none;" x1="71.5" x2="79.5" y1="101.1" y2="101.1"></line><line style="stroke:#A80036;stroke-width:1.0;fill:none;" x1="75.5" x2="75.5" y1="102.1" y2="94.1"></line><!--MD5=[32dad0d23e56bcab56fb2e516ab3626f]
link ChangeTaskStatus to User--><path codeline="29" d="M75.5,262.47 C75.5,276.8 75.5,291.96 75.5,305.55 " fill="none" id="ChangeTaskStatus-User" style="stroke:#A80036;stroke-width:1.0;"></path><line style="stroke:#A80036;stroke-width:1.0;" x1="79.5" x2="71.5" y1="309.8" y2="309.8"></line><line style="stroke:#A80036;stroke-width:1.0;" x1="79.5" x2="71.5" y1="306.8" y2="306.8"></line><line style="stroke:#A80036;stroke-width:1.0;" x1="75.5" x2="75.5" y1="305.8" y2="313.8"></line><line style="stroke:#A80036;stroke-width:1.0;" x1="75.5" x2="69.5" y1="262.09" y2="254.09"></line><line style="stroke:#A80036;stroke-width:1.0;" x1="75.5" x2="81.5" y1="262.09" y2="254.09"></line><line style="stroke:#A80036;stroke-width:1.0;" x1="75.5" x2="75.5" y1="262.09" y2="254.09"></line><ellipse cx="75.5" cy="268.09" rx="4" ry="4" style="stroke:#A80036;stroke-width:1.0;fill:none;"></ellipse><!--MD5=[2df82892c365b29adfb8ba3ebb94d3e0]
link ChangeTaskStatus to TaskStatus--><path codeline="30" d="M152.43,204 C158.58,204 164.72,204 170.87,204 " fill="none" id="ChangeTaskStatus-TaskStatus" style="stroke:#A80036;stroke-width:1.0;"></path><line style="stroke:#A80036;stroke-width:1.0;" x1="175.25" x2="175.25" y1="200" y2="208"></line><line style="stroke:#A80036;stroke-width:1.0;" x1="172.25" x2="172.25" y1="200" y2="208"></line><line style="stroke:#A80036;stroke-width:1.0;" x1="171.25" x2="179.25" y1="204" y2="204"></line><line style="stroke:#A80036;stroke-width:1.0;" x1="152.22" x2="144.22" y1="204" y2="210"></line><line style="stroke:#A80036;stroke-width:1.0;" x1="152.22" x2="144.22" y1="204" y2="198"></line><line style="stroke:#A80036;stroke-width:1.0;" x1="152.22" x2="144.22" y1="204" y2="204"></line><ellipse cx="158.22" cy="204" rx="4" ry="4" style="stroke:#A80036;stroke-width:1.0;fill:none;"></ellipse><!--MD5=[f002924842871e8bddd95a9e5b7009b2]
@startuml
entity Task {
  + id: string
  - -
  title: string
  description: string
}

entity User {
  + id: string
  - -
  name: string
}

entity TaskStatus {
  + id: string
  - -
  name: string
}

entity ChangeTaskStatus {
  + id: string
  - -
  taskId: string
  taskStatusId: string
  userId: string
}

Task ||- -o{ ChangeTaskStatus
ChangeTaskStatus }o- -|| User
ChangeTaskStatus }o-|| TaskStatus
@enduml

PlantUML version 1.2021.12(Wed Oct 06 01:01:58 JST 2021)
(GPL source distribution)
Java Runtime: OpenJDK Runtime Environment
JVM: OpenJDK 64-Bit Server VM
Default Encoding: UTF-8
Language: en
Country: JP
--></g></svg>
