<svg xmlns="http://www.w3.org/2000/svg" xlink="http://www.w3.org/1999/xlink" contentscripttype="application/ecmascript" contentstyletype="text/css" height="440px" preserveAspectRatio="none" style="width:297px;height:440px;background:#FFFFFF;" version="1.1" viewBox="0 0 297 440" width="297px" zoomAndPan="magnify"><defs><filter height="300%" id="fkxfnois19w35" width="300%" x="-1" y="-1"><feGaussianBlur result="blurOut" stdDeviation="2.0"></feGaussianBlur><feColorMatrix in="blurOut" result="blurOut2" type="matrix" values="0 0 0 0 0 0 0 0 0 0 0 0 0 0 0 0 0 0 .4 0"></feColorMatrix><feOffset dx="4.0" dy="4.0" in="blurOut2" result="blurOut3"></feOffset><feBlend in="SourceGraphic" in2="blurOut3" mode="normal"></feBlend></filter></defs><g><!--MD5=[ea1a247d756cb3d6664c7db466de2b98]
class TaskStatusTable--><rect codeline="1" fill="#FEFECE" filter="url(#fkxfnois19w35)" height="125.7305" id="TaskStatusTable" style="stroke:#A80036;stroke-width:1.5;" width="135" x="148" y="7"></rect><ellipse cx="166.6" cy="23" fill="#ADD1B2" rx="11" ry="11" style="stroke:#A80036;stroke-width:1.0;"></ellipse><path d="M170.2143,29.5 L162.4945,29.5 L162.4945,17.1069 L170.2143,17.1069 L170.2143,19.2651 L164.9433,19.2651 L164.9433,21.938 L169.7162,21.938 L169.7162,24.0962 L164.9433,24.0962 L164.9433,27.3418 L170.2143,27.3418 Z " fill="#000000"></path><text fill="#000000" font-family="sans-serif" font-size="12" lengthAdjust="spacing" textLength="95" x="181.4" y="27.5352">TaskStatusTable</text><line style="stroke:#A80036;stroke-width:1.5;" x1="149" x2="282" y1="39" y2="39"></line><ellipse cx="159" cy="50" rx="3" ry="3" style="stroke:#038048;stroke-width:1.0;fill:none;"></ellipse><text fill="#000000" font-family="sans-serif" font-size="11" lengthAdjust="spacing" textLength="48" x="168" y="53.6348">id: string</text><line style="stroke:#A80036;stroke-width:1.0;" x1="149" x2="282" y1="59.9551" y2="59.9551"></line><text fill="#000000" font-family="sans-serif" font-size="11" lengthAdjust="spacing" textLength="70" x="154" y="74.5898">taskId: string</text><text fill="#000000" font-family="sans-serif" font-size="11" lengthAdjust="spacing" textLength="72" x="154" y="87.5449">userId: string</text><text fill="#000000" font-family="sans-serif" font-size="11" lengthAdjust="spacing" textLength="92" x="154" y="100.5">userName: string</text><text fill="#000000" font-family="sans-serif" font-size="11" lengthAdjust="spacing" textLength="103" x="154" y="113.4551">taskStatusId: string</text><text fill="#000000" font-family="sans-serif" font-size="11" lengthAdjust="spacing" textLength="123" x="154" y="126.4102">taskStatusName: string</text><!--MD5=[b34797a66dc35cbf1d65f7e3ca75530e]
class Task--><rect codeline="11" fill="#FEFECE" filter="url(#fkxfnois19w35)" height="73.9102" id="Task" style="stroke:#A80036;stroke-width:1.5;" width="74" x="38.5" y="33"></rect><ellipse cx="59.8" cy="49" fill="#ADD1B2" rx="11" ry="11" style="stroke:#A80036;stroke-width:1.0;"></ellipse><path d="M63.4143,55.5 L55.6945,55.5 L55.6945,43.1069 L63.4143,43.1069 L63.4143,45.2651 L58.1433,45.2651 L58.1433,47.938 L62.9162,47.938 L62.9162,50.0962 L58.1433,50.0962 L58.1433,53.3418 L63.4143,53.3418 Z " fill="#000000"></path><text fill="#000000" font-family="sans-serif" font-size="12" lengthAdjust="spacing" textLength="28" x="75.2" y="53.5352">Task</text><line style="stroke:#A80036;stroke-width:1.5;" x1="39.5" x2="111.5" y1="65" y2="65"></line><ellipse cx="49.5" cy="76" rx="3" ry="3" style="stroke:#038048;stroke-width:1.0;fill:none;"></ellipse><text fill="#000000" font-family="sans-serif" font-size="11" lengthAdjust="spacing" textLength="48" x="58.5" y="79.6348">id: string</text><line style="stroke:#A80036;stroke-width:1.0;" x1="39.5" x2="111.5" y1="85.9551" y2="85.9551"></line><text fill="#000000" font-family="sans-serif" font-size="11" lengthAdjust="spacing" textLength="58" x="44.5" y="100.5898">title: string</text><!--MD5=[3fd616f346a44cd59a91eb10b19e157c]
class User--><rect codeline="19" fill="#FEFECE" filter="url(#fkxfnois19w35)" height="73.9102" id="User" style="stroke:#A80036;stroke-width:1.5;" width="79" x="36" y="353"></rect><ellipse cx="60.45" cy="369" fill="#ADD1B2" rx="11" ry="11" style="stroke:#A80036;stroke-width:1.0;"></ellipse><path d="M64.0643,375.5 L56.3445,375.5 L56.3445,363.1069 L64.0643,363.1069 L64.0643,365.2651 L58.7933,365.2651 L58.7933,367.938 L63.5662,367.938 L63.5662,370.0962 L58.7933,370.0962 L58.7933,373.3418 L64.0643,373.3418 Z " fill="#000000"></path><text fill="#000000" font-family="sans-serif" font-size="12" lengthAdjust="spacing" textLength="26" x="76.55" y="373.5352">User</text><line style="stroke:#A80036;stroke-width:1.5;" x1="37" x2="114" y1="385" y2="385"></line><ellipse cx="47" cy="396" rx="3" ry="3" style="stroke:#038048;stroke-width:1.0;fill:none;"></ellipse><text fill="#000000" font-family="sans-serif" font-size="11" lengthAdjust="spacing" textLength="48" x="56" y="399.6348">id: string</text><line style="stroke:#A80036;stroke-width:1.0;" x1="37" x2="114" y1="405.9551" y2="405.9551"></line><text fill="#000000" font-family="sans-serif" font-size="11" lengthAdjust="spacing" textLength="67" x="42" y="420.5898">name: string</text><!--MD5=[007b513da6771087a86fbb3bd355c48d]
class TaskStatus--><rect codeline="25" fill="#FEFECE" filter="url(#fkxfnois19w35)" height="73.9102" id="TaskStatus" style="stroke:#A80036;stroke-width:1.5;" width="94" x="179.5" y="206"></rect><ellipse cx="194.5" cy="222" fill="#ADD1B2" rx="11" ry="11" style="stroke:#A80036;stroke-width:1.0;"></ellipse><path d="M198.1143,228.5 L190.3945,228.5 L190.3945,216.1069 L198.1143,216.1069 L198.1143,218.2651 L192.8433,218.2651 L192.8433,220.938 L197.6162,220.938 L197.6162,223.0962 L192.8433,223.0962 L192.8433,226.3418 L198.1143,226.3418 Z " fill="#000000"></path><text fill="#000000" font-family="sans-serif" font-size="12" lengthAdjust="spacing" textLength="62" x="208.5" y="226.5352">TaskStatus</text><line style="stroke:#A80036;stroke-width:1.5;" x1="180.5" x2="272.5" y1="238" y2="238"></line><ellipse cx="190.5" cy="249" rx="3" ry="3" style="stroke:#038048;stroke-width:1.0;fill:none;"></ellipse><text fill="#000000" font-family="sans-serif" font-size="11" lengthAdjust="spacing" textLength="48" x="199.5" y="252.6348">id: string</text><line style="stroke:#A80036;stroke-width:1.0;" x1="180.5" x2="272.5" y1="258.9551" y2="258.9551"></line><text fill="#000000" font-family="sans-serif" font-size="11" lengthAdjust="spacing" textLength="67" x="185.5" y="273.5898">name: string</text><!--MD5=[249cbae071fadacce1ab1ebf320aa267]
class ChangeTaskStatus--><rect codeline="31" fill="#FEFECE" filter="url(#fkxfnois19w35)" height="99.8203" id="ChangeTaskStatus" style="stroke:#A80036;stroke-width:1.5;" width="137" x="7" y="193"></rect><ellipse cx="22" cy="209" fill="#ADD1B2" rx="11" ry="11" style="stroke:#A80036;stroke-width:1.0;"></ellipse><path d="M25.6143,215.5 L17.8945,215.5 L17.8945,203.1069 L25.6143,203.1069 L25.6143,205.2651 L20.3433,205.2651 L20.3433,207.938 L25.1162,207.938 L25.1162,210.0962 L20.3433,210.0962 L20.3433,213.3418 L25.6143,213.3418 Z " fill="#000000"></path><text fill="#000000" font-family="sans-serif" font-size="12" lengthAdjust="spacing" textLength="105" x="36" y="213.5352">ChangeTaskStatus</text><line style="stroke:#A80036;stroke-width:1.5;" x1="8" x2="143" y1="225" y2="225"></line><ellipse cx="18" cy="236" rx="3" ry="3" style="stroke:#038048;stroke-width:1.0;fill:none;"></ellipse><text fill="#000000" font-family="sans-serif" font-size="11" lengthAdjust="spacing" textLength="48" x="27" y="239.6348">id: string</text><line style="stroke:#A80036;stroke-width:1.0;" x1="8" x2="143" y1="245.9551" y2="245.9551"></line><text fill="#000000" font-family="sans-serif" font-size="11" lengthAdjust="spacing" textLength="70" x="13" y="260.5898">taskId: string</text><text fill="#000000" font-family="sans-serif" font-size="11" lengthAdjust="spacing" textLength="103" x="13" y="273.5449">taskStatusId: string</text><text fill="#000000" font-family="sans-serif" font-size="11" lengthAdjust="spacing" textLength="72" x="13" y="286.5">userId: string</text><!--MD5=[5a84b9e0d2bfd4ad16e4a8114e68cb30]
link Task to TaskStatusTable--><path codeline="17" d="M119.78,70 C126.6,70 133.42,70 140.23,70 " fill="none" id="Task-TaskStatusTable" style="stroke:#A80036;stroke-width:1.0;"></path><line style="stroke:#A80036;stroke-width:1.0;" x1="143.63" x2="143.63" y1="66" y2="74"></line><line style="stroke:#A80036;stroke-width:1.0;" x1="140.63" x2="140.63" y1="66" y2="74"></line><line style="stroke:#A80036;stroke-width:1.0;" x1="139.63" x2="147.63" y1="70" y2="70"></line><line style="stroke:#A80036;stroke-width:1.0;" x1="116.69" x2="116.69" y1="74" y2="66"></line><line style="stroke:#A80036;stroke-width:1.0;" x1="119.69" x2="119.69" y1="74" y2="66"></line><line style="stroke:#A80036;stroke-width:1.0;" x1="120.69" x2="112.69" y1="70" y2="70"></line><!--MD5=[f276286a1bf07b1b36e6ec52257a876f]
link Task to ChangeTaskStatus--><path codeline="39" d="M75.5,115.41 C75.5,136.54 75.5,162.06 75.5,184.64 " fill="none" id="Task-ChangeTaskStatus" style="stroke:#A80036;stroke-width:1.0;"></path><line style="stroke:#A80036;stroke-width:1.0;" x1="75.5" x2="81.5" y1="184.81" y2="192.81"></line><line style="stroke:#A80036;stroke-width:1.0;" x1="75.5" x2="69.5" y1="184.81" y2="192.81"></line><line style="stroke:#A80036;stroke-width:1.0;" x1="75.5" x2="75.5" y1="184.81" y2="192.81"></line><ellipse cx="75.5" cy="178.81" rx="4" ry="4" style="stroke:#A80036;stroke-width:1.0;fill:none;"></ellipse><line style="stroke:#A80036;stroke-width:1.0;fill:none;" x1="71.5" x2="79.5" y1="111.26" y2="111.26"></line><line style="stroke:#A80036;stroke-width:1.0;fill:none;" x1="71.5" x2="79.5" y1="114.26" y2="114.26"></line><line style="stroke:#A80036;stroke-width:1.0;fill:none;" x1="75.5" x2="75.5" y1="115.26" y2="107.26"></line><!--MD5=[32dad0d23e56bcab56fb2e516ab3626f]
link ChangeTaskStatus to User--><path codeline="40" d="M75.5,301.47 C75.5,315.8 75.5,330.96 75.5,344.55 " fill="none" id="ChangeTaskStatus-User" style="stroke:#A80036;stroke-width:1.0;"></path><line style="stroke:#A80036;stroke-width:1.0;" x1="75.5" x2="81.5" y1="344.8" y2="352.8"></line><line style="stroke:#A80036;stroke-width:1.0;" x1="75.5" x2="69.5" y1="344.8" y2="352.8"></line><line style="stroke:#A80036;stroke-width:1.0;" x1="75.5" x2="75.5" y1="344.8" y2="352.8"></line><ellipse cx="75.5" cy="338.8" rx="4" ry="4" style="stroke:#A80036;stroke-width:1.0;fill:none;"></ellipse><line style="stroke:#A80036;stroke-width:1.0;fill:none;" x1="71.5" x2="79.5" y1="297.09" y2="297.09"></line><line style="stroke:#A80036;stroke-width:1.0;fill:none;" x1="71.5" x2="79.5" y1="300.09" y2="300.09"></line><line style="stroke:#A80036;stroke-width:1.0;fill:none;" x1="75.5" x2="75.5" y1="301.09" y2="293.09"></line><!--MD5=[2df82892c365b29adfb8ba3ebb94d3e0]
link ChangeTaskStatus to TaskStatus--><path codeline="41" d="M152.43,243 C158.58,243 164.72,243 170.87,243 " fill="none" id="ChangeTaskStatus-TaskStatus" style="stroke:#A80036;stroke-width:1.0;"></path><line style="stroke:#A80036;stroke-width:1.0;" x1="171.25" x2="179.25" y1="243" y2="237"></line><line style="stroke:#A80036;stroke-width:1.0;" x1="171.25" x2="179.25" y1="243" y2="249"></line><line style="stroke:#A80036;stroke-width:1.0;" x1="171.25" x2="179.25" y1="243" y2="243"></line><ellipse cx="165.25" cy="243" rx="4" ry="4" style="stroke:#A80036;stroke-width:1.0;fill:none;"></ellipse><line style="stroke:#A80036;stroke-width:1.0;fill:none;" x1="148.22" x2="148.22" y1="247" y2="239"></line><line style="stroke:#A80036;stroke-width:1.0;fill:none;" x1="151.22" x2="151.22" y1="247" y2="239"></line><line style="stroke:#A80036;stroke-width:1.0;fill:none;" x1="152.22" x2="144.22" y1="243" y2="243"></line><!--MD5=[ed278add6f583bff11ffe2f7c675f8cf]
@startuml
entity TaskStatusTable {
  + id: string
  - -
  taskId: string
  userId: string
  userName: string
  taskStatusId: string
  taskStatusName: string
}

entity Task {
  + id: string
  - -
  title: string
}

Task ||-|| TaskStatusTable

entity User {
  + id: string
  - -
  name: string
}

entity TaskStatus {
  + id: string
  - -
  name: string
}

entity ChangeTaskStatus {
  + id: string
  - -
  taskId: string
  taskStatusId: string
  userId: string
}

Task ||- -o{ ChangeTaskStatus
ChangeTaskStatus||- -o{ User
ChangeTaskStatus ||-o{ TaskStatus
@enduml

PlantUML version 1.2021.12(Wed Oct 06 01:01:58 JST 2021)
(GPL source distribution)
Java Runtime: OpenJDK Runtime Environment
JVM: OpenJDK 64-Bit Server VM
Default Encoding: UTF-8
Language: en
Country: JP
--></g></svg>
